# Arechi Urban Study - 3D Buildings Model
# Origine locale: X=486126.12, Y=4497774.89

v 296.8051 -271.1187 0.0000
v 296.8051 -271.1187 6.0000
v 295.2811 -272.0372 0.0000
v 295.2811 -272.0372 6.0000
v 294.1623 -273.4227 0.0000
v 294.1623 -273.4227 6.0000
v 293.6353 -274.8315 0.0000
v 293.6353 -274.8315 6.0000
v 293.5814 -276.6074 0.0000
v 293.5814 -276.6074 6.0000
v 294.1365 -278.2846 0.0000
v 294.1365 -278.2846 6.0000
v 294.7691 -279.2182 0.0000
v 294.7691 -279.2182 6.0000
v 296.1540 -280.3418 0.0000
v 296.1540 -280.3418 6.0000
v 298.5462 -280.9900 0.0000
v 298.5462 -280.9900 6.0000
v 300.3058 -280.7157 0.0000
v 300.3058 -280.7157 6.0000
v 302.1007 -279.6645 0.0000
v 302.1007 -279.6645 6.0000
v 303.1858 -278.2567 0.0000
v 303.1858 -278.2567 6.0000
v 303.7301 -276.5705 0.0000
v 303.7301 -276.5705 6.0000
v 303.7660 -275.4494 0.0000
v 303.7660 -275.4494 6.0000
v 303.3040 -273.7391 0.0000
v 303.3040 -273.7391 6.0000
v 302.2242 -272.2164 0.0000
v 302.2242 -272.2164 6.0000
v 300.7545 -271.2258 0.0000
v 300.7545 -271.2258 6.0000
v 299.0300 -270.7897 0.0000
v 299.0300 -270.7897 6.0000
v -464.2534 498.0157 0.0000
v -464.2534 498.0157 6.0000
v -465.8343 493.8339 0.0000
v -465.8343 493.8339 6.0000
v -469.3069 490.9989 0.0000
v -469.3069 490.9989 6.0000
v -473.7310 490.2748 0.0000
v -473.7310 490.2748 6.0000
v -477.9223 491.8592 0.0000
v -477.9223 491.8592 6.0000
v -480.7655 495.3057 0.0000
v -480.7655 495.3057 6.0000
v -481.4927 499.7140 0.0000
v -481.4927 499.7140 6.0000
v -479.9117 503.8957 0.0000
v -479.9117 503.8957 6.0000
v -476.4392 506.7196 0.0000
v -476.4392 506.7196 6.0000
v -472.0151 507.4548 0.0000
v -472.0151 507.4548 6.0000
v -467.8237 505.8705 0.0000
v -467.8237 505.8705 6.0000
v -464.9806 502.4239 0.0000
v -464.9806 502.4239 6.0000
v -449.2774 515.4476 0.0000
v -449.2774 515.4476 6.0000
v -450.6705 512.1979 0.0000
v -450.6705 512.1979 6.0000
v -453.4990 510.0832 0.0000
v -453.4990 510.0832 6.0000
v -457.0176 509.6681 0.0000
v -457.0176 509.6681 6.0000
v -460.2791 511.0509 0.0000
v -460.2791 511.0509 6.0000
v -462.4047 513.8744 0.0000
v -462.4047 513.8744 6.0000
v -462.8292 517.3829 0.0000
v -462.8292 517.3829 6.0000
v -461.4361 520.6215 0.0000
v -461.4361 520.6215 6.0000
v -458.5991 522.7473 0.0000
v -458.5991 522.7473 6.0000
v -455.0805 523.1624 0.0000
v -455.0805 523.1624 6.0000
v -451.8190 521.7796 0.0000
v -451.8190 521.7796 6.0000
v -449.6934 518.9561 0.0000
v -449.6934 518.9561 6.0000
v -712.6468 828.1663 0.0000
v -712.6468 828.1663 6.0000
v -721.5375 822.1229 0.0000
v -721.5375 822.1229 6.0000
v -724.4128 826.3134 0.0000
v -724.4128 826.3134 6.0000
v -731.5253 821.4765 0.0000
v -731.5253 821.4765 6.0000
v -713.6665 795.4446 0.0000
v -713.6665 795.4446 6.0000
v -705.4108 801.0562 0.0000
v -705.4108 801.0562 6.0000
v -701.8441 795.8543 0.0000
v -701.8441 795.8543 6.0000
v -693.4107 801.5878 0.0000
v -693.4107 801.5878 6.0000
v -705.7382 819.5722 0.0000
v -705.7382 819.5722 6.0000
v -701.7755 822.2729 0.0000
v -701.7755 822.2729 6.0000
v -706.3877 828.9976 0.0000
v -706.3877 828.9976 6.0000
v -711.0447 825.8321 0.0000
v -711.0447 825.8321 6.0000
v -310.9120 503.3274 0.0000
v -310.9120 503.3274 6.0000
v -274.1186 418.6287 0.0000
v -274.1186 418.6287 6.0000
v -194.7575 452.8336 0.0000
v -194.7575 452.8336 6.0000
v -201.8217 469.0867 0.0000
v -201.8217 469.0867 6.0000
v -209.1087 465.9480 0.0000
v -209.1087 465.9480 6.0000
v -216.9558 484.0230 0.0000
v -216.9558 484.0230 6.0000
v -227.4673 479.4918 0.0000
v -227.4673 479.4918 6.0000
v -235.3228 497.5669 0.0000
v -235.3228 497.5669 6.0000
v -245.5211 493.1683 0.0000
v -245.5211 493.1683 6.0000
v -252.9556 510.2880 0.0000
v -252.9556 510.2880 6.0000
v -262.7223 506.0773 0.0000
v -262.7223 506.0773 6.0000
v -269.3147 521.2640 0.0000
v -269.3147 521.2640 6.0000
v -174.4790 416.9858 0.0000
v -174.4790 416.9858 6.0000
v -239.9929 340.4067 0.0000
v -239.9929 340.4067 6.0000
v -184.7409 293.9584 0.0000
v -184.7409 293.9584 6.0000
v -120.4180 371.3394 0.0000
v -120.4180 371.3394 6.0000
v -528.9097 520.5187 0.0000
v -528.9097 520.5187 6.0000
v -507.1379 496.9218 0.0000
v -507.1379 496.9218 6.0000
v -467.2209 533.4646 0.0000
v -467.2209 533.4646 6.0000
v -488.9927 557.0615 0.0000
v -488.9927 557.0615 6.0000
v -509.4759 538.5302 0.0000
v -509.4759 538.5302 6.0000
v -528.4169 644.0308 0.0000
v -528.4169 644.0308 6.0000
v -545.2057 624.9153 0.0000
v -545.2057 624.9153 6.0000
v -551.4697 630.3666 0.0000
v -551.4697 630.3666 6.0000
v -534.6808 649.4932 0.0000
v -534.6808 649.4932 6.0000
v -429.9423 521.8264 0.0000
v -429.9423 521.8264 6.0000
v -423.1244 505.3071 0.0000
v -423.1244 505.3071 6.0000
v -411.4623 510.0800 0.0000
v -411.4623 510.0800 6.0000
v -418.2803 526.5993 0.0000
v -418.2803 526.5993 6.0000
v -481.3681 678.2287 0.0000
v -481.3681 678.2287 6.0000
v -493.1959 666.3409 0.0000
v -493.1959 666.3409 6.0000
v -471.1925 644.6084 0.0000
v -471.1925 644.6084 6.0000
v -459.3562 656.4851 0.0000
v -459.3562 656.4851 6.0000
v -234.5130 228.9384 0.0000
v -234.5130 228.9384 6.0000
v -244.9624 217.2030 0.0000
v -244.9624 217.2030 6.0000
v -248.4794 213.2468 0.0000
v -248.4794 213.2468 6.0000
v -263.5578 226.5625 0.0000
v -263.5578 226.5625 6.0000
v -249.5914 242.2540 0.0000
v -249.5914 242.2540 6.0000
v -746.2916 884.9660 0.0000
v -746.2916 884.9660 6.0000
v -765.1309 872.3487 0.0000
v -765.1309 872.3487 6.0000
v -774.5066 886.2314 0.0000
v -774.5066 886.2314 6.0000
v -755.6673 898.8487 0.0000
v -755.6673 898.8487 6.0000
v -255.1232 281.7149 0.0000
v -255.1232 281.7149 6.0000
v -268.7017 265.4233 0.0000
v -268.7017 265.4233 6.0000
v -227.1939 231.1001 0.0000
v -227.1939 231.1001 6.0000
v -213.6154 247.3918 0.0000
v -213.6154 247.3918 6.0000
v -226.5936 427.3299 0.0000
v -226.5936 427.3299 6.0000
v -219.1123 408.0678 0.0000
v -219.1123 408.0678 6.0000
v -245.4651 397.9055 0.0000
v -245.4651 397.9055 6.0000
v -241.4088 387.4858 0.0000
v -241.4088 387.4858 6.0000
v -253.7221 382.7360 0.0000
v -253.7221 382.7360 6.0000
v -258.0308 393.8334 0.0000
v -258.0308 393.8334 6.0000
v -267.0435 390.3650 0.0000
v -267.0435 390.3650 6.0000
v -274.2639 408.9606 0.0000
v -274.2639 408.9606 6.0000
v -361.0509 577.9394 0.0000
v -361.0509 577.9394 6.0000
v -354.0047 561.3421 0.0000
v -354.0047 561.3421 6.0000
v -342.8418 566.0384 0.0000
v -342.8418 566.0384 6.0000
v -318.6808 509.1032 0.0000
v -318.6808 509.1032 6.0000
v -289.4406 521.4132 0.0000
v -289.4406 521.4132 6.0000
v -302.1105 551.2750 0.0000
v -302.1105 551.2750 6.0000
v -314.1366 546.2029 0.0000
v -314.1366 546.2029 6.0000
v -332.6741 589.8957 0.0000
v -332.6741 589.8957 6.0000
v 168.8252 580.3300 0.0000
v 168.8252 580.3300 6.0000
v 226.9430 523.7671 0.0000
v 226.9430 523.7671 6.0000
v 254.4280 497.0205 0.0000
v 254.4280 497.0205 6.0000
v 298.4147 541.5300 0.0000
v 298.4147 541.5300 6.0000
v 268.8426 569.1127 0.0000
v 268.8426 569.1127 6.0000
v 266.5211 571.2815 0.0000
v 266.5211 571.2815 6.0000
v 210.2816 623.7558 0.0000
v 210.2816 623.7558 6.0000
v 264.6276 719.5738 0.0000
v 264.6276 719.5738 6.0000
v 347.5902 640.2552 0.0000
v 347.5902 640.2552 6.0000
v 359.9528 653.9749 0.0000
v 359.9528 653.9749 6.0000
v 353.4267 659.7700 0.0000
v 353.4267 659.7700 6.0000
v 361.7893 668.7905 0.0000
v 361.7893 668.7905 6.0000
v 333.9035 698.1237 0.0000
v 333.9035 698.1237 6.0000
v 338.6332 704.2647 0.0000
v 338.6332 704.2647 6.0000
v 290.4488 749.8970 0.0000
v 290.4488 749.8970 6.0000
v 79.8601 732.7349 0.0000
v 79.8601 732.7349 6.0000
v 154.9462 675.4185 0.0000
v 154.9462 675.4185 6.0000
v 140.8497 657.0957 0.0000
v 140.8497 657.0957 6.0000
v 65.7720 714.4345 0.0000
v 65.7720 714.4345 6.0000
v 254.0073 863.1089 0.0000
v 254.0073 863.1089 6.0000
v 285.8927 838.8298 0.0000
v 285.8927 838.8298 6.0000
v 278.9879 831.6161 0.0000
v 278.9879 831.6161 6.0000
v 288.7778 825.8150 0.0000
v 288.7778 825.8150 6.0000
v 271.6687 801.2591 0.0000
v 271.6687 801.2591 6.0000
v 262.6164 808.1467 0.0000
v 262.6164 808.1467 6.0000
v 254.9712 798.4035 0.0000
v 254.9712 798.4035 6.0000
v 224.1919 821.8372 0.0000
v 224.1919 821.8372 6.0000
v 243.4903 868.9114 0.0000
v 243.4903 868.9114 6.0000
v 214.7503 828.4814 0.0000
v 214.7503 828.4814 6.0000
v 175.9717 856.3811 0.0000
v 175.9717 856.3811 6.0000
v 206.1688 898.2625 0.0000
v 206.1688 898.2625 6.0000
v 105.7812 775.5452 0.0000
v 105.7812 775.5452 6.0000
v 190.2234 715.7364 0.0000
v 190.2234 715.7364 6.0000
v 164.7640 684.7024 0.0000
v 164.7640 684.7024 6.0000
v 81.4138 745.2199 0.0000
v 81.4138 745.2199 6.0000
v 158.5392 812.5449 0.0000
v 158.5392 812.5449 6.0000
v 184.7337 792.9490 0.0000
v 184.7337 792.9490 6.0000
v 178.6389 784.8570 0.0000
v 178.6389 784.8570 6.0000
v 199.8007 769.0335 0.0000
v 199.8007 769.0335 6.0000
v 204.7766 775.6401 0.0000
v 204.7766 775.6401 6.0000
v 218.6086 765.2914 0.0000
v 218.6086 765.2914 6.0000
v 225.5087 774.4476 0.0000
v 225.5087 774.4476 6.0000
v 217.2585 780.6234 0.0000
v 217.2585 780.6234 6.0000
v 226.3031 792.6173 0.0000
v 226.3031 792.6173 6.0000
v 173.3735 832.2206 0.0000
v 173.3735 832.2206 6.0000
v 127.5789 788.1481 0.0000
v 127.5789 788.1481 6.0000
v 201.1428 730.9015 0.0000
v 201.1428 730.9015 6.0000
v 213.1459 746.7862 0.0000
v 213.1459 746.7862 6.0000
v 137.7717 803.6808 0.0000
v 137.7717 803.6808 6.0000
v 202.8202 658.9574 0.0000
v 202.8202 658.9574 6.0000
v 306.7890 556.8220 0.0000
v 306.7890 556.8220 6.0000
v 349.3250 599.0478 0.0000
v 349.3250 599.0478 6.0000
v 239.5520 699.3839 0.0000
v 239.5520 699.3839 6.0000
v 369.9264 506.9668 0.0000
v 369.9264 506.9668 6.0000
v 424.6061 568.1968 0.0000
v 424.6061 568.1968 6.0000
v 471.6466 529.5495 0.0000
v 471.6466 529.5495 6.0000
v 419.7610 465.5279 0.0000
v 419.7610 465.5279 6.0000
v 441.2350 476.6338 0.0000
v 441.2350 476.6338 6.0000
v 480.4988 523.9612 0.0000
v 480.4988 523.9612 6.0000
v 504.2454 505.7918 0.0000
v 504.2454 505.7918 6.0000
v 463.1205 458.0124 0.0000
v 463.1205 458.0124 6.0000
v 290.6168 489.9168 0.0000
v 290.6168 489.9168 6.0000
v 299.4859 498.2702 0.0000
v 299.4859 498.2702 6.0000
v 296.2293 502.4499 0.0000
v 296.2293 502.4499 6.0000
v 315.8633 524.7146 0.0000
v 315.8633 524.7146 6.0000
v 335.4178 507.9619 0.0000
v 335.4178 507.9619 6.0000
v 316.2539 483.8315 0.0000
v 316.2539 483.8315 6.0000
v 312.5298 486.6244 0.0000
v 312.5298 486.6244 6.0000
v 305.0458 477.3471 0.0000
v 305.0458 477.3471 6.0000
v 518.5498 418.8952 0.0000
v 518.5498 418.8952 6.0000
v 571.1731 375.5875 0.0000
v 571.1731 375.5875 6.0000
v 546.3965 343.1080 0.0000
v 546.3965 343.1080 6.0000
v 491.4416 387.8076 0.0000
v 491.4416 387.8076 6.0000
v 630.9388 410.7909 0.0000
v 630.9388 410.7909 6.0000
v 668.1951 380.5319 0.0000
v 668.1951 380.5319 6.0000
v 624.7225 324.8525 0.0000
v 624.7225 324.8525 6.0000
v 618.2031 329.9702 0.0000
v 618.2031 329.9702 6.0000
v 610.7178 319.7713 0.0000
v 610.7178 319.7713 6.0000
v 583.7059 342.5751 0.0000
v 583.7059 342.5751 6.0000
v 591.6539 351.3967 0.0000
v 591.6539 351.3967 6.0000
v 586.0657 356.9791 0.0000
v 586.0657 356.9791 6.0000
v 554.5076 442.9850 0.0000
v 554.5076 442.9850 6.0000
v 543.2805 425.8108 0.0000
v 543.2805 425.8108 6.0000
v 584.7301 390.4266 0.0000
v 584.7301 390.4266 6.0000
v 587.7050 394.2065 0.0000
v 587.7050 394.2065 6.0000
v 598.2827 407.5967 0.0000
v 598.2827 407.5967 6.0000
v 584.0371 419.1110 0.0000
v 584.0371 419.1110 6.0000
v 600.6780 441.9700 0.0000
v 600.6780 441.9700 6.0000
v 619.3088 428.4722 0.0000
v 619.3088 428.4722 6.0000
v 588.9261 391.3515 0.0000
v 588.9261 391.3515 6.0000
v 587.7050 394.2065 0.0000
v 587.7050 394.2065 6.0000
v 598.2827 407.5967 0.0000
v 598.2827 407.5967 6.0000
v 584.0371 419.1110 0.0000
v 584.0371 419.1110 6.0000
v 576.9540 477.7886 0.0000
v 576.9540 477.7886 6.0000
v 596.0515 465.2112 0.0000
v 596.0515 465.2112 6.0000
v 588.1088 454.5358 0.0000
v 588.1088 454.5358 6.0000
v 569.9431 468.0440 0.0000
v 569.9431 468.0440 6.0000
v 558.7410 464.8117 0.0000
v 558.7410 464.8117 6.0000
v 564.3500 470.8402 0.0000
v 564.3500 470.8402 6.0000
v 583.4375 452.6904 0.0000
v 583.4375 452.6904 6.0000
v 577.3651 447.5951 0.0000
v 577.3651 447.5951 6.0000
v 649.8506 555.2497 0.0000
v 649.8506 555.2497 6.0000
v 684.7805 529.6348 0.0000
v 684.7805 529.6348 6.0000
v 637.0955 463.2843 0.0000
v 637.0955 463.2843 6.0000
v 601.6927 489.3554 0.0000
v 601.6927 489.3554 6.0000
v 531.0030 600.9842 0.0000
v 531.0030 600.9842 6.0000
v 558.9481 580.4985 0.0000
v 558.9481 580.4985 6.0000
v 547.7212 563.3242 0.0000
v 547.7212 563.3242 6.0000
v 518.8467 584.2779 0.0000
v 518.8467 584.2779 6.0000
v 489.6192 672.1448 0.0000
v 489.6192 672.1448 6.0000
v 528.2781 642.3376 0.0000
v 528.2781 642.3376 6.0000
v 496.0196 596.4071 0.0000
v 496.0196 596.4071 6.0000
v 455.0258 625.7413 0.0000
v 455.0258 625.7413 6.0000
v 555.7846 636.7160 0.0000
v 555.7846 636.7160 6.0000
v 564.1716 631.1287 0.0000
v 564.1716 631.1287 6.0000
v 552.4781 613.0228 0.0000
v 552.4781 613.0228 6.0000
v 542.6949 618.1576 0.0000
v 542.6949 618.1576 6.0000
v 642.5597 654.2106 0.0000
v 642.5597 654.2106 6.0000
v 664.4577 637.9098 0.0000
v 664.4577 637.9098 6.0000
v 632.1965 594.7648 0.0000
v 632.1965 594.7648 6.0000
v 608.4372 610.6029 0.0000
v 608.4372 610.6029 6.0000
v 592.4541 539.0900 0.0000
v 592.4541 539.0900 6.0000
v 559.3783 560.9834 0.0000
v 559.3783 560.9834 6.0000
v 575.7497 584.6421 0.0000
v 575.7497 584.6421 6.0000
v 566.8992 591.1627 0.0000
v 566.8992 591.1627 6.0000
v 571.1059 598.1262 0.0000
v 571.1059 598.1262 6.0000
v 555.7347 608.8433 0.0000
v 555.7347 608.8433 6.0000
v 568.8252 627.8679 0.0000
v 568.8252 627.8679 6.0000
v 593.0461 610.1641 0.0000
v 593.0461 610.1641 6.0000
v 595.3850 612.9461 0.0000
v 595.3850 612.9461 6.0000
v 608.4372 610.6029 0.0000
v 608.4372 610.6029 6.0000
v 632.1965 594.7648 0.0000
v 632.1965 594.7648 6.0000
v 512.7477 564.3194 0.0000
v 512.7477 564.3194 6.0000
v 529.0466 552.2130 0.0000
v 529.0466 552.2130 6.0000
v 520.6388 541.5385 0.0000
v 520.6388 541.5385 6.0000
v 503.8621 551.3258 0.0000
v 503.8621 551.3258 6.0000
v 538.3698 549.8653 0.0000
v 538.3698 549.8653 6.0000
v 549.5501 541.0205 0.0000
v 549.5501 541.0205 6.0000
v 541.5998 530.8114 0.0000
v 541.5998 530.8114 6.0000
v 529.9603 538.2694 0.0000
v 529.9603 538.2694 6.0000
v 683.6301 624.8218 0.0000
v 683.6301 624.8218 6.0000
v 707.6632 605.9865 0.0000
v 707.6632 605.9865 6.0000
v 679.6234 568.4617 0.0000
v 679.6234 568.4617 6.0000
v 656.2402 586.6411 0.0000
v 656.2402 586.6411 6.0000
v 744.6052 790.9186 0.0000
v 744.6052 790.9186 6.0000
v 774.5066 767.3666 0.0000
v 774.5066 767.3666 6.0000
v 744.4952 728.5574 0.0000
v 744.4952 728.5574 6.0000
v 756.2803 722.2094 0.0000
v 756.2803 722.2094 6.0000
v 705.3544 653.6219 0.0000
v 705.3544 653.6219 6.0000
v 662.7629 683.5128 0.0000
v 662.7629 683.5128 6.0000
v 504.4046 919.0442 0.0000
v 504.4046 919.0442 6.0000
v 688.6449 772.8686 0.0000
v 688.6449 772.8686 6.0000
v 590.9596 649.2742 0.0000
v 590.9596 649.2742 6.0000
v 407.3790 796.2057 0.0000
v 407.3790 796.2057 6.0000
v 484.0565 696.4866 0.0000
v 484.0565 696.4866 6.0000
v 443.2907 730.0053 0.0000
v 443.2907 730.0053 6.0000
v 406.9287 687.5902 0.0000
v 406.9287 687.5902 6.0000
v 448.5913 649.5630 0.0000
v 448.5913 649.5630 6.0000
v 365.3847 790.6873 0.0000
v 365.3847 790.6873 6.0000
v 393.4633 769.8567 0.0000
v 393.4633 769.8567 6.0000
v 374.3626 742.7733 0.0000
v 374.3626 742.7733 6.0000
v 345.3707 763.6168 0.0000
v 345.3707 763.6168 6.0000
v 407.9644 759.8845 0.0000
v 407.9644 759.8845 6.0000
v 425.1867 749.0084 0.0000
v 425.1867 749.0084 6.0000
v 383.3410 690.3414 0.0000
v 383.3410 690.3414 6.0000
v 364.3106 702.1312 0.0000
v 364.3106 702.1312 6.0000
v 338.2108 816.0454 0.0000
v 338.2108 816.0454 6.0000
v 350.8887 803.3680 0.0000
v 350.8887 803.3680 6.0000
v 322.6982 767.2767 0.0000
v 322.6982 767.2767 6.0000
v 306.3910 779.0506 0.0000
v 306.3910 779.0506 6.0000
v 376.9314 597.2438 0.0000
v 376.9314 597.2438 6.0000
v 371.8976 600.5941 0.0000
v 371.8976 600.5941 6.0000
v 360.6104 587.7161 0.0000
v 360.6104 587.7161 6.0000
v 393.8842 558.7617 0.0000
v 393.8842 558.7617 6.0000
v 403.9701 571.3977 0.0000
v 403.9701 571.3977 6.0000
v 399.4219 572.1275 0.0000
v 399.4219 572.1275 6.0000
v 397.0160 569.7453 0.0000
v 397.0160 569.7453 6.0000
v 393.9084 572.1375 0.0000
v 393.9084 572.1375 6.0000
v 411.2040 592.1644 0.0000
v 411.2040 592.1644 6.0000
v 407.8511 594.5570 0.0000
v 407.8511 594.5570 6.0000
v 419.3826 606.9574 0.0000
v 419.3826 606.9574 6.0000
v 404.5403 620.1159 0.0000
v 404.5403 620.1159 6.0000
v 392.7708 607.0055 0.0000
v 392.7708 607.0055 6.0000
v 374.7534 585.3038 0.0000
v 374.7534 585.3038 6.0000
v 370.4392 589.1302 0.0000
v 370.4392 589.1302 6.0000
v 360.1046 574.5854 0.0000
v 360.1046 574.5854 6.0000
v 376.3827 560.4584 0.0000
v 376.3827 560.4584 6.0000
v 363.8895 544.7187 0.0000
v 363.8895 544.7187 6.0000
v 347.3639 557.6473 0.0000
v 347.3639 557.6473 6.0000
v 356.0627 625.8982 0.0000
v 356.0627 625.8982 6.0000
v 367.2183 617.5861 0.0000
v 367.2183 617.5861 6.0000
v 360.5040 608.2962 0.0000
v 360.5040 608.2962 6.0000
v 343.2688 621.4703 0.0000
v 343.2688 621.4703 6.0000
v 346.7252 624.9051 0.0000
v 346.7252 624.9051 6.0000
v 342.0636 628.3547 0.0000
v 342.0636 628.3547 6.0000
v 344.5045 631.3806 0.0000
v 344.5045 631.3806 6.0000
v 353.8247 622.8719 0.0000
v 353.8247 622.8719 6.0000
v -123.5230 802.0810 0.0000
v -123.5230 802.0810 6.0000
v -82.8551 839.6235 0.0000
v -82.8551 839.6235 6.0000
v -30.9837 786.5446 0.0000
v -30.9837 786.5446 6.0000
v -72.4741 747.7934 0.0000
v -72.4741 747.7934 6.0000
v -192.1136 813.5326 0.0000
v -192.1136 813.5326 6.0000
v -168.9360 835.7339 0.0000
v -168.9360 835.7339 6.0000
v -16.5718 679.3444 0.0000
v -16.5718 679.3444 6.0000
v -39.3543 655.9209 0.0000
v -39.3543 655.9209 6.0000
v -72.0766 743.3415 0.0000
v -72.0766 743.3415 6.0000
v -50.1114 763.9247 0.0000
v -50.1114 763.9247 6.0000
v 11.0843 704.3572 0.0000
v 11.0843 704.3572 6.0000
v -12.1024 681.7559 0.0000
v -12.1024 681.7559 6.0000
v -165.2777 838.5575 0.0000
v -165.2777 838.5575 6.0000
v -122.9748 877.7063 0.0000
v -122.9748 877.7063 6.0000
v -102.3111 858.2530 0.0000
v -102.3111 858.2530 6.0000
v -144.2012 818.3041 0.0000
v -144.2012 818.3041 6.0000
v 720.6415 -749.1581 0.0000
v 720.6415 -749.1581 6.0000
v 705.5186 -763.7171 0.0000
v 705.5186 -763.7171 6.0000
v 603.1798 -654.1644 0.0000
v 603.1798 -654.1644 6.0000
v 650.4132 -627.1861 0.0000
v 650.4132 -627.1861 6.0000
v 654.5448 -624.8179 0.0000
v 654.5448 -624.8179 6.0000
v 693.6418 -602.4758 0.0000
v 693.6418 -602.4758 6.0000
v 757.5972 -713.5582 0.0000
v 757.5972 -713.5582 6.0000
v 724.1745 -745.7566 0.0000
v 724.1745 -745.7566 6.0000
v 687.8552 360.6831 0.0000
v 687.8552 360.6831 6.0000
v 724.9440 335.8860 0.0000
v 724.9440 335.8860 6.0000
v 723.7989 329.1168 0.0000
v 723.7989 329.1168 6.0000
v 733.0394 322.9288 0.0000
v 733.0394 322.9288 6.0000
v 726.6295 313.4382 0.0000
v 726.6295 313.4382 6.0000
v 738.5983 305.4249 0.0000
v 738.5983 305.4249 6.0000
v 718.4950 275.6007 0.0000
v 718.4950 275.6007 6.0000
v 696.7956 290.1138 0.0000
v 696.7956 290.1138 6.0000
v 678.7779 263.3830 0.0000
v 678.7779 263.3830 6.0000
v 639.8390 289.4157 0.0000
v 639.8390 289.4157 6.0000
v -193.6497 180.0419 0.0000
v -193.6497 180.0419 6.0000
v -184.6093 189.0161 0.0000
v -184.6093 189.0161 6.0000
v -180.5403 185.2454 0.0000
v -180.5403 185.2454 6.0000
v -177.0395 189.5901 0.0000
v -177.0395 189.5901 6.0000
v -171.5187 184.3514 0.0000
v -171.5187 184.3514 6.0000
v -175.0184 180.5950 0.0000
v -175.0184 180.5950 6.0000
v -171.5318 177.3916 0.0000
v -171.5318 177.3916 6.0000
v -181.1583 166.9755 0.0000
v -181.1583 166.9755 6.0000
v -147.9441 182.8639 0.0000
v -147.9441 182.8639 6.0000
v -139.1924 191.2504 0.0000
v -139.1924 191.2504 6.0000
v -125.8221 177.8937 0.0000
v -125.8221 177.8937 6.0000
v -134.2873 168.9184 0.0000
v -134.2873 168.9184 6.0000
v -145.5756 201.1305 0.0000
v -145.5756 201.1305 6.0000
v -141.4929 204.5972 0.0000
v -141.4929 204.5972 6.0000
v -134.2316 198.4895 0.0000
v -134.2316 198.4895 6.0000
v -138.3154 194.4456 0.0000
v -138.3154 194.4456 6.0000
v -172.0365 219.1518 0.0000
v -172.0365 219.1518 6.0000
v -162.4450 211.0194 0.0000
v -162.4450 211.0194 6.0000
v -154.5644 219.4075 0.0000
v -154.5644 219.4075 6.0000
v -156.3111 221.4421 0.0000
v -156.3111 221.4421 6.0000
v -152.5160 224.9204 0.0000
v -152.5160 224.9204 6.0000
v -146.1247 219.3915 0.0000
v -146.1247 219.3915 6.0000
v -150.2073 215.9248 0.0000
v -150.2073 215.9248 6.0000
v -147.5896 213.8886 0.0000
v -147.5896 213.8886 6.0000
v -158.0904 201.7313 0.0000
v -158.0904 201.7313 6.0000
v -174.6630 216.5482 0.0000
v -174.6630 216.5482 6.0000
v -181.6312 225.5526 0.0000
v -181.6312 225.5526 6.0000
v -172.8769 235.3931 0.0000
v -172.8769 235.3931 6.0000
v -160.9637 225.2250 0.0000
v -160.9637 225.2250 6.0000
v -164.4623 222.0347 0.0000
v -164.4623 222.0347 6.0000
v -171.4365 227.8533 0.0000
v -171.4365 227.8533 6.0000
v -177.2679 220.9044 0.0000
v -177.2679 220.9044 6.0000
v -136.1217 277.0831 0.0000
v -136.1217 277.0831 6.0000
v -121.5812 265.4559 0.0000
v -121.5812 265.4559 6.0000
v -111.9516 277.6148 0.0000
v -111.9516 277.6148 6.0000
v -125.3251 289.2398 0.0000
v -125.3251 289.2398 6.0000
v -132.4063 238.2140 0.0000
v -132.4063 238.2140 6.0000
v -122.7788 249.2185 0.0000
v -122.7788 249.2185 6.0000
v -110.2831 238.4721 0.0000
v -110.2831 238.4721 6.0000
v -120.7849 225.7265 0.0000
v -120.7849 225.7265 6.0000
v -18.0855 190.1574 0.0000
v -18.0855 190.1574 6.0000
v -3.5554 177.3650 0.0000
v -3.5554 177.3650 6.0000
v 6.6593 190.3999 0.0000
v 6.6593 190.3999 6.0000
v -8.7525 202.0284 0.0000
v -8.7525 202.0284 6.0000
v -34.0082 240.6491 0.0000
v -34.0082 240.6491 6.0000
v -25.2871 232.7960 0.0000
v -25.2871 232.7960 6.0000
v -46.5843 208.4818 0.0000
v -46.5843 208.4818 6.0000
v -51.8220 211.3887 0.0000
v -51.8220 211.3887 6.0000
v -55.8878 216.9021 0.0000
v -55.8878 216.9021 6.0000
v -91.9737 67.6265 0.0000
v -91.9737 67.6265 6.0000
v -69.5910 48.1590 0.0000
v -69.5910 48.1590 6.0000
v -59.6759 59.1520 0.0000
v -59.6759 59.1520 6.0000
v -82.3455 78.9196 0.0000
v -82.3455 78.9196 6.0000
v -43.9665 52.7510 0.0000
v -43.9665 52.7510 6.0000
v -31.1765 40.8387 0.0000
v -31.1765 40.8387 6.0000
v -21.8387 50.6783 0.0000
v -21.8387 50.6783 6.0000
v -35.4996 62.5922 0.0000
v -35.4996 62.5922 6.0000
v -73.7140 23.2244 0.0000
v -73.7140 23.2244 6.0000
v -61.4609 36.2554 0.0000
v -61.4609 36.2554 6.0000
v -53.9044 29.5700 0.0000
v -53.9044 29.5700 6.0000
v -65.5756 15.6721 0.0000
v -65.5756 15.6721 6.0000
v -1.0105 18.3043 0.0000
v -1.0105 18.3043 6.0000
v 10.6994 30.3485 0.0000
v 10.6994 30.3485 6.0000
v 18.4306 35.7399 0.0000
v 18.4306 35.7399 6.0000
v 26.7640 28.4426 0.0000
v 26.7640 28.4426 6.0000
v 10.6572 7.6818 0.0000
v 10.6572 7.6818 6.0000
v -33.3888 6.5096 0.0000
v -33.3888 6.5096 6.0000
v -26.9048 14.1900 0.0000
v -26.9048 14.1900 6.0000
v -21.6943 10.2397 0.0000
v -21.6943 10.2397 6.0000
v -23.5776 7.1240 0.0000
v -23.5776 7.1240 6.0000
v -12.3204 -1.4220 0.0000
v -12.3204 -1.4220 6.0000
v -17.9221 -7.6610 0.0000
v -17.9221 -7.6610 6.0000
v 145.1974 -153.4995 0.0000
v 145.1974 -153.4995 6.0000
v 158.1256 -159.5619 0.0000
v 158.1256 -159.5619 6.0000
v 153.7245 -170.5653 0.0000
v 153.7245 -170.5653 6.0000
v 140.5852 -164.3027 0.0000
v 140.5852 -164.3027 6.0000
v 136.8253 -167.0042 0.0000
v 136.8253 -167.0042 6.0000
v 144.9541 -170.7600 0.0000
v 144.9541 -170.7600 6.0000
v 142.4412 -175.9503 0.0000
v 142.4412 -175.9503 6.0000
v 133.6765 -173.0258 0.0000
v 133.6765 -173.0258 6.0000
v 154.7540 -176.3948 0.0000
v 154.7540 -176.3948 6.0000
v 164.9787 -180.9870 0.0000
v 164.9787 -180.9870 6.0000
v 162.0410 -187.2199 0.0000
v 162.0410 -187.2199 6.0000
v 151.8244 -182.8276 0.0000
v 151.8244 -182.8276 6.0000
v 136.3636 -188.0051 0.0000
v 136.3636 -188.0051 6.0000
v 153.2607 -197.3938 0.0000
v 153.2607 -197.3938 6.0000
v 146.9697 -210.4805 0.0000
v 146.9697 -210.4805 6.0000
v 129.8705 -200.6696 0.0000
v 129.8705 -200.6696 6.0000
v 192.3038 -190.1839 0.0000
v 192.3038 -190.1839 6.0000
v 202.9429 -194.7768 0.0000
v 202.9429 -194.7768 6.0000
v 199.3722 -204.9602 0.0000
v 199.3722 -204.9602 6.0000
v 187.9058 -199.5333 0.0000
v 187.9058 -199.5333 6.0000
v 183.9585 -207.5294 0.0000
v 183.9585 -207.5294 6.0000
v 192.9403 -211.9749 0.0000
v 192.9403 -211.9749 6.0000
v 194.8163 -208.2043 0.0000
v 194.8163 -208.2043 6.0000
v 198.2468 -209.9089 0.0000
v 198.2468 -209.9089 6.0000
v 191.2862 -223.8825 0.0000
v 191.2862 -223.8825 6.0000
v 178.8654 -217.7434 0.0000
v 178.8654 -217.7434 6.0000
v 174.5063 -219.6779 0.0000
v 174.5063 -219.6779 6.0000
v 189.1085 -226.1540 0.0000
v 189.1085 -226.1540 6.0000
v 186.1670 -234.4627 0.0000
v 186.1670 -234.4627 6.0000
v 171.3626 -227.5755 0.0000
v 171.3626 -227.5755 6.0000
v 192.4357 -233.4308 0.0000
v 192.4357 -233.4308 6.0000
v 199.5236 -237.6064 0.0000
v 199.5236 -237.6064 6.0000
v 191.3553 -250.6897 0.0000
v 191.3553 -250.6897 6.0000
v 185.5182 -246.9382 0.0000
v 185.5182 -246.9382 6.0000
v 167.1419 -250.8561 0.0000
v 167.1419 -250.8561 6.0000
v 180.0657 -259.4049 0.0000
v 180.0657 -259.4049 6.0000
v 175.4601 -266.6671 0.0000
v 175.4601 -266.6671 6.0000
v 162.3336 -257.9181 0.0000
v 162.3336 -257.9181 6.0000
v 156.2752 -259.5609 0.0000
v 156.2752 -259.5609 6.0000
v 169.6104 -269.7755 0.0000
v 169.6104 -269.7755 6.0000
v 161.8698 -280.1622 0.0000
v 161.8698 -280.1622 6.0000
v 148.3243 -269.3256 0.0000
v 148.3243 -269.3256 6.0000
v 265.2045 -162.4559 0.0000
v 265.2045 -162.4559 6.0000
v 269.9929 -166.2054 0.0000
v 269.9929 -166.2054 6.0000
v 272.2966 -164.3448 0.0000
v 272.2966 -164.3448 6.0000
v 277.2964 -168.0947 0.0000
v 277.2964 -168.0947 6.0000
v 275.8284 -170.7894 0.0000
v 275.8284 -170.7894 6.0000
v 279.3751 -173.7152 0.0000
v 279.3751 -173.7152 6.0000
v 266.1961 -189.0761 0.0000
v 266.1961 -189.0761 6.0000
v 252.8609 -178.8617 0.0000
v 252.8609 -178.8617 6.0000
v 221.6449 -123.9136 0.0000
v 221.6449 -123.9136 6.0000
v 233.3238 -128.7082 0.0000
v 233.3238 -128.7082 6.0000
v 229.7639 -137.6485 0.0000
v 229.7639 -137.6485 6.0000
v 218.0865 -132.0103 0.0000
v 218.0865 -132.0103 6.0000
v 177.5018 -145.2671 0.0000
v 177.5018 -145.2671 6.0000
v 189.5013 -150.5285 0.0000
v 189.5013 -150.5285 6.0000
v 185.7476 -159.0356 0.0000
v 185.7476 -159.0356 6.0000
v 172.8608 -153.3951 0.0000
v 172.8608 -153.3951 6.0000
v 175.1029 -148.3153 0.0000
v 175.1029 -148.3153 6.0000
v 172.7790 -147.2898 0.0000
v 172.7790 -147.2898 6.0000
v 175.0635 -142.1213 0.0000
v 175.0635 -142.1213 6.0000
v 178.6144 -142.7494 0.0000
v 178.6144 -142.7494 6.0000
v 223.2942 -137.6366 0.0000
v 223.2942 -137.6366 6.0000
v 237.0613 -142.8568 0.0000
v 237.0613 -142.8568 6.0000
v 233.6998 -154.2839 0.0000
v 233.6998 -154.2839 6.0000
v 227.4369 -152.1966 0.0000
v 227.4369 -152.1966 6.0000
v 228.2787 -149.7006 0.0000
v 228.2787 -149.7006 6.0000
v 220.5631 -146.5673 0.0000
v 220.5631 -146.5673 6.0000
v 282.5328 -162.6984 0.0000
v 282.5328 -162.6984 6.0000
v 289.7222 -152.9544 0.0000
v 289.7222 -152.9544 6.0000
v 299.4180 -160.0652 0.0000
v 299.4180 -160.0652 6.0000
v 292.2371 -169.7981 0.0000
v 292.2371 -169.7981 6.0000
v 304.9830 -210.9812 0.0000
v 304.9830 -210.9812 6.0000
v 299.6167 -218.0312 0.0000
v 299.6167 -218.0312 6.0000
v 309.6603 -229.2608 0.0000
v 309.6603 -229.2608 6.0000
v 315.5604 -221.6790 0.0000
v 315.5604 -221.6790 6.0000
v 232.8179 -178.6141 0.0000
v 232.8179 -178.6141 6.0000
v 240.5328 -182.1692 0.0000
v 240.5328 -182.1692 6.0000
v 236.5523 -189.8544 0.0000
v 236.5523 -189.8544 6.0000
v 229.2607 -186.0891 0.0000
v 229.2607 -186.0891 6.0000
v 147.7429 -130.6376 0.0000
v 147.7429 -130.6376 6.0000
v 156.7097 -133.9843 0.0000
v 156.7097 -133.9843 6.0000
v 155.2485 -137.5114 0.0000
v 155.2485 -137.5114 6.0000
v 153.5645 -142.7033 0.0000
v 153.5645 -142.7033 6.0000
v 144.8079 -139.9898 0.0000
v 144.8079 -139.9898 6.0000
v 136.0475 -134.7676 0.0000
v 136.0475 -134.7676 6.0000
v 142.3034 -136.0334 0.0000
v 142.3034 -136.0334 6.0000
v 139.3646 -147.4613 0.0000
v 139.3646 -147.4613 6.0000
v 134.1489 -146.2084 0.0000
v 134.1489 -146.2084 6.0000
v 141.4846 -130.6261 0.0000
v 141.4846 -130.6261 6.0000
v 135.6419 -129.9937 0.0000
v 135.6419 -129.9937 6.0000
v 138.8056 -111.2845 0.0000
v 138.8056 -111.2845 6.0000
v 139.6528 -105.8802 0.0000
v 139.6528 -105.8802 6.0000
v 145.7092 -100.6853 0.0000
v 145.7092 -100.6853 6.0000
v 154.6825 -105.0754 0.0000
v 154.6825 -105.0754 6.0000
v 144.8325 -126.6806 0.0000
v 144.8325 -126.6806 6.0000
v 141.2828 -125.4308 0.0000
v 141.2828 -125.4308 6.0000
v 159.0587 -107.5810 0.0000
v 159.0587 -107.5810 6.0000
v 174.9111 -114.6700 0.0000
v 174.9111 -114.6700 6.0000
v 170.7172 -123.3982 0.0000
v 170.7172 -123.3982 6.0000
v 160.0747 -120.6812 0.0000
v 160.0747 -120.6812 6.0000
v 158.8158 -124.6306 0.0000
v 158.8158 -124.6306 6.0000
v 151.7230 -123.1523 0.0000
v 151.7230 -123.1523 6.0000
v 204.5442 -114.9354 0.0000
v 204.5442 -114.9354 6.0000
v 216.4357 -119.1198 0.0000
v 216.4357 -119.1198 6.0000
v 212.6628 -128.8812 0.0000
v 212.6628 -128.8812 6.0000
v 200.5683 -124.7074 0.0000
v 200.5683 -124.7074 6.0000
v 245.6084 -149.1108 0.0000
v 245.6084 -149.1108 6.0000
v 255.8251 -153.5030 0.0000
v 255.8251 -153.5030 6.0000
v 252.6807 -161.8113 0.0000
v 252.6807 -161.8113 6.0000
v 241.2036 -157.6277 0.0000
v 241.2036 -157.6277 6.0000
v 259.3869 -148.1037 0.0000
v 259.3869 -148.1037 6.0000
v 266.4767 -151.2358 0.0000
v 266.4767 -151.2358 6.0000
v 263.1210 -159.5438 0.0000
v 263.1210 -159.5438 6.0000
v 256.0308 -156.6225 0.0000
v 256.0308 -156.6225 6.0000
v 345.6739 -111.4747 0.0000
v 345.6739 -111.4747 6.0000
v 354.4382 -114.6098 0.0000
v 354.4382 -114.6098 6.0000
v 357.3613 -116.2802 0.0000
v 357.3613 -116.2802 6.0000
v 344.3787 -135.3824 0.0000
v 344.3787 -135.3824 6.0000
v 333.5442 -126.6267 0.0000
v 333.5442 -126.6267 6.0000
v 425.4075 -27.1017 0.0000
v 425.4075 -27.1017 6.0000
v 445.8610 -33.9320 0.0000
v 445.8610 -33.9320 6.0000
v 441.8138 -45.9463 0.0000
v 441.8138 -45.9463 6.0000
v 421.3602 -39.1160 0.0000
v 421.3602 -39.1160 6.0000
v 417.5200 -48.8551 0.0000
v 417.5200 -48.8551 6.0000
v 425.1020 -51.0778 0.0000
v 425.1020 -51.0778 6.0000
v 421.3410 -63.7919 0.0000
v 421.3410 -63.7919 6.0000
v 413.7675 -61.5581 0.0000
v 413.7675 -61.5581 6.0000
v 511.3737 -257.2765 0.0000
v 511.3737 -257.2765 6.0000
v 522.0322 -251.2682 0.0000
v 522.0322 -251.2682 6.0000
v 526.8151 -258.1367 0.0000
v 526.8151 -258.1367 6.0000
v 516.1629 -265.3883 0.0000
v 516.1629 -265.3883 6.0000
v 500.3636 -270.7103 0.0000
v 500.3636 -270.7103 6.0000
v 505.1718 -268.2213 0.0000
v 505.1718 -268.2213 6.0000
v 511.2063 -279.8764 0.0000
v 511.2063 -279.8764 6.0000
v 515.8020 -278.0087 0.0000
v 515.8020 -278.0087 6.0000
v 519.9579 -285.5088 0.0000
v 519.9579 -285.5088 6.0000
v 510.9758 -290.4767 0.0000
v 510.9758 -290.4767 6.0000
v 458.6954 -284.3885 0.0000
v 458.6954 -284.3885 6.0000
v 468.5152 -279.2002 0.0000
v 468.5152 -279.2002 6.0000
v 471.4886 -285.8990 0.0000
v 471.4886 -285.8990 6.0000
v 474.3356 -292.3090 0.0000
v 474.3356 -292.3090 6.0000
v 465.3527 -297.6986 0.0000
v 465.3527 -297.6986 6.0000
v 471.4886 -285.8990 0.0000
v 471.4886 -285.8990 6.0000
v 479.1569 -282.5494 0.0000
v 479.1569 -282.5494 6.0000
v 485.6043 -295.0377 0.0000
v 485.6043 -295.0377 6.0000
v 477.8665 -299.3862 0.0000
v 477.8665 -299.3862 6.0000
v 430.2193 -326.8068 0.0000
v 430.2193 -326.8068 6.0000
v 436.0666 -324.9525 0.0000
v 436.0666 -324.9525 6.0000
v 439.3881 -335.5592 0.0000
v 439.3881 -335.5592 6.0000
v 433.3382 -337.2134 0.0000
v 433.3382 -337.2134 6.0000
v 254.2240 -422.9925 0.0000
v 254.2240 -422.9925 6.0000
v 272.2470 -408.9503 0.0000
v 272.2470 -408.9503 6.0000
v 287.7810 -428.7372 0.0000
v 287.7810 -428.7372 6.0000
v 269.7495 -442.7794 0.0000
v 269.7495 -442.7794 6.0000
v 312.5089 -434.3102 0.0000
v 312.5089 -434.3102 6.0000
v 340.9321 -412.3168 0.0000
v 340.9321 -412.3168 6.0000
v 353.6394 -428.5574 0.0000
v 353.6394 -428.5574 6.0000
v 325.6306 -450.5516 0.0000
v 325.6306 -450.5516 6.0000
v 325.6306 -450.5516 0.0000
v 325.6306 -450.5516 6.0000
v 339.1650 -467.8372 0.0000
v 339.1650 -467.8372 6.0000
v 368.2240 -445.0123 0.0000
v 368.2240 -445.0123 6.0000
v 353.6394 -428.5574 0.0000
v 353.6394 -428.5574 6.0000
v 278.0753 -408.3283 0.0000
v 278.0753 -408.3283 6.0000
v 285.6981 -402.2703 0.0000
v 285.6981 -402.2703 6.0000
v 297.9841 -417.6111 0.0000
v 297.9841 -417.6111 6.0000
v 290.3613 -423.6691 0.0000
v 290.3613 -423.6691 6.0000
v 387.3496 -592.5474 0.0000
v 387.3496 -592.5474 6.0000
v 395.5494 -585.4803 0.0000
v 395.5494 -585.4803 6.0000
v 403.5421 -594.6858 0.0000
v 403.5421 -594.6858 6.0000
v 395.3423 -601.7418 0.0000
v 395.3423 -601.7418 6.0000
v 402.6704 -562.3047 0.0000
v 402.6704 -562.3047 6.0000
v 411.6663 -554.5730 0.0000
v 411.6663 -554.5730 6.0000
v 419.8193 -564.0119 0.0000
v 419.8193 -564.0119 6.0000
v 410.8234 -571.7325 0.0000
v 410.8234 -571.7325 6.0000
v 427.7368 -558.6425 0.0000
v 427.7368 -558.6425 6.0000
v 436.4366 -550.9880 0.0000
v 436.4366 -550.9880 6.0000
v 445.0965 -560.7496 0.0000
v 445.0965 -560.7496 6.0000
v 436.3967 -568.4042 0.0000
v 436.3967 -568.4042 6.0000
v 417.5097 -578.4047 0.0000
v 417.5097 -578.4047 6.0000
v 427.2841 -570.4857 0.0000
v 427.2841 -570.4857 6.0000
v 435.9931 -581.1577 0.0000
v 435.9931 -581.1577 6.0000
v 426.2187 -589.0767 0.0000
v 426.2187 -589.0767 6.0000
v 430.8792 -593.5808 0.0000
v 430.8792 -593.5808 6.0000
v 440.1542 -585.8717 0.0000
v 440.1542 -585.8717 6.0000
v 448.5514 -595.8882 0.0000
v 448.5514 -595.8882 6.0000
v 439.2764 -603.5973 0.0000
v 439.2764 -603.5973 6.0000
v 399.9926 -607.2115 0.0000
v 399.9926 -607.2115 6.0000
v 408.4717 -600.0339 0.0000
v 408.4717 -600.0339 6.0000
v 416.8777 -609.8951 0.0000
v 416.8777 -609.8951 6.0000
v 408.3986 -617.0727 0.0000
v 408.3986 -617.0727 6.0000
v 414.0368 -623.4211 0.0000
v 414.0368 -623.4211 6.0000
v 422.0159 -616.7865 0.0000
v 422.0159 -616.7865 6.0000
v 429.3076 -625.4912 0.0000
v 429.3076 -625.4912 6.0000
v 421.3285 -632.1258 0.0000
v 421.3285 -632.1258 6.0000
v 434.7842 -613.6238 0.0000
v 434.7842 -613.6238 6.0000
v 444.2123 -605.4488 0.0000
v 444.2123 -605.4488 6.0000
v 453.2012 -615.7328 0.0000
v 453.2012 -615.7328 6.0000
v 443.7646 -623.9078 0.0000
v 443.7646 -623.9078 6.0000
v 400.6414 -524.4491 0.0000
v 400.6414 -524.4491 6.0000
v 409.7957 -522.6563 0.0000
v 409.7957 -522.6563 6.0000
v 409.9969 -523.6890 0.0000
v 409.9969 -523.6890 6.0000
v 412.0104 -523.3042 0.0000
v 412.0104 -523.3042 6.0000
v 412.9658 -528.1567 0.0000
v 412.9658 -528.1567 6.0000
v 414.4210 -527.8707 0.0000
v 414.4210 -527.8707 6.0000
v 415.6195 -533.9447 0.0000
v 415.6195 -533.9447 6.0000
v 402.9963 -536.4195 0.0000
v 402.9963 -536.4195 6.0000
v 422.6173 -499.3245 0.0000
v 422.6173 -499.3245 6.0000
v 434.3014 -496.9591 0.0000
v 434.3014 -496.9591 6.0000
v 436.7828 -509.1184 0.0000
v 436.7828 -509.1184 6.0000
v 425.0987 -511.4838 0.0000
v 425.0987 -511.4838 6.0000
v 423.7238 -518.7964 0.0000
v 423.7238 -518.7964 6.0000
v 436.9808 -516.5781 0.0000
v 436.9808 -516.5781 6.0000
v 438.9808 -528.4146 0.0000
v 438.9808 -528.4146 6.0000
v 425.7238 -530.6440 0.0000
v 425.7238 -530.6440 6.0000
v 435.5399 -574.4967 0.0000
v 435.5399 -574.4967 3.0000
v 452.6755 -560.1750 0.0000
v 452.6755 -560.1750 3.0000
v 456.1572 -599.2764 0.0000
v 456.1572 -599.2764 3.0000
v 424.5215 -639.0138 0.0000
v 424.5215 -639.0138 6.0000
v 432.9999 -632.2135 0.0000
v 432.9999 -632.2135 6.0000
v 441.0674 -642.1961 0.0000
v 441.0674 -642.1961 6.0000
v 432.5890 -648.9964 0.0000
v 432.5890 -648.9964 6.0000
v 438.3298 -654.7789 0.0000
v 438.3298 -654.7789 6.0000
v 446.0720 -648.1771 0.0000
v 446.0720 -648.1771 6.0000
v 453.9972 -657.3935 0.0000
v 453.9972 -657.3935 6.0000
v 446.2549 -663.9953 0.0000
v 446.2549 -663.9953 6.0000
v 548.8161 -563.1117 0.0000
v 548.8161 -563.1117 6.0000
v 583.2967 -554.2044 0.0000
v 583.2967 -554.2044 6.0000
v 579.3961 -540.9437 0.0000
v 579.3961 -540.9437 6.0000
v 546.3010 -550.7304 0.0000
v 546.3010 -550.7304 6.0000
v 550.0766 -567.6540 0.0000
v 550.0766 -567.6540 6.0000
v 574.0381 -562.2688 0.0000
v 574.0381 -562.2688 6.0000
v 575.6674 -568.7099 0.0000
v 575.6674 -568.7099 6.0000
v 578.3198 -575.2749 0.0000
v 578.3198 -575.2749 6.0000
v 558.4105 -580.0457 0.0000
v 558.4105 -580.0457 6.0000
v 556.6560 -572.7164 0.0000
v 556.6560 -572.7164 6.0000
v 551.0720 -573.8386 0.0000
v 551.0720 -573.8386 6.0000
v 581.9139 -561.2839 0.0000
v 581.9139 -561.2839 6.0000
v 596.0100 -558.0788 0.0000
v 596.0100 -558.0788 6.0000
v 597.0002 -562.4097 0.0000
v 597.0002 -562.4097 6.0000
v 582.9042 -565.6147 0.0000
v 582.9042 -565.6147 6.0000
v 583.9137 -568.6247 0.0000
v 583.9137 -568.6247 6.0000
v 597.1979 -565.4182 0.0000
v 597.1979 -565.4182 6.0000
v 599.3893 -574.4023 0.0000
v 599.3893 -574.4023 6.0000
v 586.0966 -577.6087 0.0000
v 586.0966 -577.6087 6.0000
v 569.8873 -613.2671 0.0000
v 569.8873 -613.2671 6.0000
v 584.9763 -608.2435 0.0000
v 584.9763 -608.2435 6.0000
v 589.6461 -621.7608 0.0000
v 589.6461 -621.7608 6.0000
v 575.5623 -627.5411 0.0000
v 575.5623 -627.5411 6.0000
v 575.6342 -587.2695 0.0000
v 575.6342 -587.2695 6.0000
v 584.8916 -584.6330 0.0000
v 584.8916 -584.6330 6.0000
v 587.7950 -592.7192 0.0000
v 587.7950 -592.7192 6.0000
v 579.9325 -595.7355 0.0000
v 579.9325 -595.7355 6.0000
v 582.0690 -602.2996 0.0000
v 582.0690 -602.2996 6.0000
v 577.8887 -603.5576 0.0000
v 577.8887 -603.5576 6.0000
v 572.5905 -591.4266 0.0000
v 572.5905 -591.4266 6.0000
v 576.1374 -589.6680 0.0000
v 576.1374 -589.6680 6.0000
v 588.8311 -580.8549 0.0000
v 588.8311 -580.8549 6.0000
v 595.6778 -578.3362 0.0000
v 595.6778 -578.3362 6.0000
v 600.0880 -590.4656 0.0000
v 600.0880 -590.4656 6.0000
v 593.1144 -592.9840 0.0000
v 593.1144 -592.9840 6.0000
v 592.2020 -535.5385 0.0000
v 592.2020 -535.5385 6.0000
v 603.2385 -531.1403 0.0000
v 603.2385 -531.1403 6.0000
v 608.7913 -542.7611 0.0000
v 608.7913 -542.7611 6.0000
v 597.1278 -547.7909 0.0000
v 597.1278 -547.7909 6.0000
v 562.8187 -597.9694 0.0000
v 562.8187 -597.9694 6.0000
v 567.2532 -596.4677 0.0000
v 567.2532 -596.4677 6.0000
v 569.7781 -603.4099 0.0000
v 569.7781 -603.4099 6.0000
v 572.0623 -603.0366 0.0000
v 572.0623 -603.0366 6.0000
v 574.3263 -609.2346 0.0000
v 574.3263 -609.2346 6.0000
v 567.9875 -611.4877 0.0000
v 567.9875 -611.4877 6.0000
v 604.5464 -551.7891 0.0000
v 604.5464 -551.7891 6.0000
v 611.5200 -549.2374 0.0000
v 611.5200 -549.2374 6.0000
v 614.5155 -557.9009 0.0000
v 614.5155 -557.9009 6.0000
v 607.6437 -560.2419 0.0000
v 607.6437 -560.2419 6.0000
v 550.9066 -737.1010 0.0000
v 550.9066 -737.1010 3.0000
v 574.6653 -765.0829 0.0000
v 574.6653 -765.0829 3.0000
v 551.2327 -786.4423 0.0000
v 551.2327 -786.4423 3.0000
v 526.6605 -759.3247 0.0000
v 526.6605 -759.3247 3.0000
v 571.9887 -743.6213 0.0000
v 571.9887 -743.6213 6.0000
v 586.1530 -730.8147 0.0000
v 586.1530 -730.8147 6.0000
v 592.5514 -737.8415 0.0000
v 592.5514 -737.8415 6.0000
v 578.3956 -750.6481 0.0000
v 578.3956 -750.6481 6.0000
v 538.9490 -721.9722 0.0000
v 538.9490 -721.9722 6.0000
v 533.9614 -715.8581 0.0000
v 533.9614 -715.8581 6.0000
v 522.7802 -725.2955 0.0000
v 522.7802 -725.2955 6.0000
v 527.5912 -730.8653 0.0000
v 527.5912 -730.8653 6.0000
v 613.6661 -754.5850 0.0000
v 613.6661 -754.5850 6.0000
v 623.9148 -746.2892 0.0000
v 623.9148 -746.2892 6.0000
v 629.5366 -752.5375 0.0000
v 629.5366 -752.5375 6.0000
v 619.2956 -761.2441 0.0000
v 619.2956 -761.2441 6.0000
v 641.8193 -770.4419 0.0000
v 641.8193 -770.4419 6.0000
v 650.3919 -762.9645 0.0000
v 650.3919 -762.9645 6.0000
v 653.7264 -766.5114 0.0000
v 653.7264 -766.5114 6.0000
v 644.7394 -773.9770 0.0000
v 644.7394 -773.9770 6.0000
v 656.6543 -765.6841 0.0000
v 656.6543 -765.6841 6.0000
v 664.8049 -757.6841 0.0000
v 664.8049 -757.6841 6.0000
v 671.5000 -764.4561 0.0000
v 671.5000 -764.4561 6.0000
v 666.2046 -769.6527 0.0000
v 666.2046 -769.6527 6.0000
v 668.4672 -771.9434 0.0000
v 668.4672 -771.9434 6.0000
v 665.6120 -774.7467 0.0000
v 665.6120 -774.7467 6.0000
v 605.1846 -710.9015 0.0000
v 605.1846 -710.9015 6.0000
v 613.5542 -703.4348 0.0000
v 613.5542 -703.4348 6.0000
v 623.5471 -715.2966 0.0000
v 623.5471 -715.2966 6.0000
v 615.8107 -723.3971 0.0000
v 615.8107 -723.3971 6.0000
v 565.2269 -693.8023 0.0000
v 565.2269 -693.8023 6.0000
v 570.9788 -688.7287 0.0000
v 570.9788 -688.7287 6.0000
v 575.8829 -694.2321 0.0000
v 575.8829 -694.2321 6.0000
v 570.1310 -699.3057 0.0000
v 570.1310 -699.3057 6.0000
v 582.8917 -676.7839 0.0000
v 582.8917 -676.7839 6.0000
v 589.8215 -670.3914 0.0000
v 589.8215 -670.3914 6.0000
v 594.2195 -675.1280 0.0000
v 594.2195 -675.1280 6.0000
v 587.2897 -681.5204 0.0000
v 587.2897 -681.5204 6.0000
v 590.7352 -684.4682 0.0000
v 590.7352 -684.4682 6.0000
v 597.0801 -678.8516 0.0000
v 597.0801 -678.8516 6.0000
v 608.8214 -691.9820 0.0000
v 608.8214 -691.9820 6.0000
v 602.4765 -697.6096 0.0000
v 602.4765 -697.6096 6.0000
v 586.6761 -698.3696 0.0000
v 586.6761 -698.3696 6.0000
v 592.0806 -693.5950 0.0000
v 592.0806 -693.5950 6.0000
v 600.6143 -703.2008 0.0000
v 600.6143 -703.2008 6.0000
v 595.2097 -707.9643 0.0000
v 595.2097 -707.9643 6.0000
v 620.1521 -698.2183 0.0000
v 620.1521 -698.2183 6.0000
v 626.9363 -692.8690 0.0000
v 626.9363 -692.8690 6.0000
v 621.9320 -686.5773 0.0000
v 621.9320 -686.5773 6.0000
v 619.0015 -688.8810 0.0000
v 619.0015 -688.8810 6.0000
v 620.2488 -691.3807 0.0000
v 620.2488 -691.3807 6.0000
v 616.8525 -694.0610 0.0000
v 616.8525 -694.0610 6.0000
v 668.7873 -910.9636 0.0000
v 668.7873 -910.9636 6.0000
v 694.5756 -891.8836 0.0000
v 694.5756 -891.8836 6.0000
v 700.6003 -899.9530 0.0000
v 700.6003 -899.9530 6.0000
v 674.8035 -919.0442 0.0000
v 674.8035 -919.0442 6.0000
v 615.9591 124.1861 0.0000
v 615.9591 124.1861 6.0000
v 620.0847 123.4684 0.0000
v 620.0847 123.4684 6.0000
v 623.7443 122.2075 0.0000
v 623.7443 122.2075 6.0000
v 627.9184 120.1909 0.0000
v 627.9184 120.1909 6.0000
v 631.0934 117.5212 0.0000
v 631.0934 117.5212 6.0000
v 634.1478 113.6307 0.0000
v 634.1478 113.6307 6.0000
v 636.9814 109.1522 0.0000
v 636.9814 109.1522 6.0000
v 638.3696 105.1536 0.0000
v 638.3696 105.1536 6.0000
v 639.0181 98.8808 0.0000
v 639.0181 98.8808 6.0000
v 637.7472 92.8112 0.0000
v 637.7472 92.8112 6.0000
v 634.6672 87.0668 0.0000
v 634.6672 87.0668 6.0000
v 630.8542 82.9221 0.0000
v 630.8542 82.9221 6.0000
v 627.0006 79.7209 0.0000
v 627.0006 79.7209 6.0000
v 621.3213 77.0226 0.0000
v 621.3213 77.0226 6.0000
v 615.6704 76.0891 0.0000
v 615.6704 76.0891 6.0000
v 611.3573 76.0080 0.0000
v 611.3573 76.0080 6.0000
v 605.9474 77.4274 0.0000
v 605.9474 77.4274 6.0000
v 601.9101 80.2652 0.0000
v 601.9101 80.2652 6.0000
v 597.9334 83.9131 0.0000
v 597.9334 83.9131 6.0000
v 595.2004 87.8142 0.0000
v 595.2004 87.8142 6.0000
v 592.9655 91.3037 0.0000
v 592.9655 91.3037 6.0000
v 591.7811 95.7903 0.0000
v 591.7811 95.7903 6.0000
v 590.9866 100.7647 0.0000
v 590.9866 100.7647 6.0000
v 591.5696 105.2148 0.0000
v 591.5696 105.2148 6.0000
v 593.4811 110.0733 0.0000
v 593.4811 110.0733 6.0000
v 596.1523 114.1979 0.0000
v 596.1523 114.1979 6.0000
v 599.7785 117.9100 0.0000
v 599.7785 117.9100 6.0000
v 604.9696 121.8858 0.0000
v 604.9696 121.8858 6.0000
v 610.7317 123.5516 0.0000
v 610.7317 123.5516 6.0000
v 657.4424 87.6146 0.0000
v 657.4424 87.6146 6.0000
v 661.5681 86.8969 0.0000
v 661.5681 86.8969 6.0000
v 665.2277 85.6360 0.0000
v 665.2277 85.6360 6.0000
v 669.4018 83.6195 0.0000
v 669.4018 83.6195 6.0000
v 672.5853 80.9498 0.0000
v 672.5853 80.9498 6.0000
v 675.6398 77.0592 0.0000
v 675.6398 77.0592 6.0000
v 678.4649 72.5808 0.0000
v 678.4649 72.5808 6.0000
v 679.8616 68.5822 0.0000
v 679.8616 68.5822 6.0000
v 680.5102 62.3094 0.0000
v 680.5102 62.3094 6.0000
v 679.2308 56.2287 0.0000
v 679.2308 56.2287 6.0000
v 676.1593 50.4954 0.0000
v 676.1593 50.4954 6.0000
v 672.3379 46.3506 0.0000
v 672.3379 46.3506 6.0000
v 668.4843 43.1495 0.0000
v 668.4843 43.1495 6.0000
v 662.8049 40.4511 0.0000
v 662.8049 40.4511 6.0000
v 657.1541 39.5176 0.0000
v 657.1541 39.5176 6.0000
v 652.8409 39.4365 0.0000
v 652.8409 39.4365 6.0000
v 647.4394 40.8558 0.0000
v 647.4394 40.8558 6.0000
v 643.3936 43.6936 0.0000
v 643.3936 43.6936 6.0000
v 639.4169 47.3415 0.0000
v 639.4169 47.3415 6.0000
v 636.6838 51.2426 0.0000
v 636.6838 51.2426 6.0000
v 634.4490 54.7321 0.0000
v 634.4490 54.7321 6.0000
v 633.2645 59.2187 0.0000
v 633.2645 59.2187 6.0000
v 632.4784 64.1930 0.0000
v 632.4784 64.1930 6.0000
v 633.0529 68.6321 0.0000
v 633.0529 68.6321 6.0000
v 634.9644 73.5017 0.0000
v 634.9644 73.5017 6.0000
v 637.6441 77.6151 0.0000
v 637.6441 77.6151 6.0000
v 641.2702 81.3384 0.0000
v 641.2702 81.3384 6.0000
v 646.4529 85.3031 0.0000
v 646.4529 85.3031 6.0000
v 652.2576 87.1576 0.0000
v 652.2576 87.1576 6.0000
v 576.4778 78.8342 0.0000
v 576.4778 78.8342 6.0000
v 580.6035 78.1275 0.0000
v 580.6035 78.1275 6.0000
v 584.2630 76.8556 0.0000
v 584.2630 76.8556 6.0000
v 588.4371 74.8390 0.0000
v 588.4371 74.8390 6.0000
v 591.6206 72.1692 0.0000
v 591.6206 72.1692 6.0000
v 594.6750 68.2898 0.0000
v 594.6750 68.2898 6.0000
v 597.5086 63.8113 0.0000
v 597.5086 63.8113 6.0000
v 598.8968 59.8127 0.0000
v 598.8968 59.8127 6.0000
v 599.5452 53.5288 0.0000
v 599.5452 53.5288 6.0000
v 598.2743 47.4592 0.0000
v 598.2743 47.4592 6.0000
v 595.1942 41.7259 0.0000
v 595.1942 41.7259 6.0000
v 591.3728 37.5701 0.0000
v 591.3728 37.5701 6.0000
v 587.5276 34.3801 0.0000
v 587.5276 34.3801 6.0000
v 581.8482 31.6706 0.0000
v 581.8482 31.6706 6.0000
v 576.1889 30.7372 0.0000
v 576.1889 30.7372 6.0000
v 571.8757 30.6561 0.0000
v 571.8757 30.6561 6.0000
v 566.4743 32.0755 0.0000
v 566.4743 32.0755 6.0000
v 562.4285 34.9244 0.0000
v 562.4285 34.9244 6.0000
v 558.4603 38.5724 0.0000
v 558.4603 38.5724 6.0000
v 555.7187 42.4624 0.0000
v 555.7187 42.4624 6.0000
v 553.4839 45.9519 0.0000
v 553.4839 45.9519 6.0000
v 552.3080 50.4385 0.0000
v 552.3080 50.4385 6.0000
v 551.5135 55.4129 0.0000
v 551.5135 55.4129 6.0000
v 552.0881 59.8631 0.0000
v 552.0881 59.8631 6.0000
v 553.9996 64.7327 0.0000
v 553.9996 64.7327 6.0000
v 556.6793 68.8461 0.0000
v 556.6793 68.8461 6.0000
v 560.3055 72.5582 0.0000
v 560.3055 72.5582 6.0000
v 565.4882 76.5339 0.0000
v 565.4882 76.5339 6.0000
v 571.2588 78.2108 0.0000
v 571.2588 78.2108 6.0000
v 620.0495 41.9813 0.0000
v 620.0495 41.9813 6.0000
v 624.1752 41.2635 0.0000
v 624.1752 41.2635 6.0000
v 627.8348 40.0027 0.0000
v 627.8348 40.0027 6.0000
v 632.0089 37.9861 0.0000
v 632.0089 37.9861 6.0000
v 635.1925 35.3163 0.0000
v 635.1925 35.3163 6.0000
v 638.2469 31.4258 0.0000
v 638.2469 31.4258 6.0000
v 641.0805 26.9474 0.0000
v 641.0805 26.9474 6.0000
v 642.4688 22.9488 0.0000
v 642.4688 22.9488 6.0000
v 643.1173 16.6760 0.0000
v 643.1173 16.6760 6.0000
v 641.8464 10.5953 0.0000
v 641.8464 10.5953 6.0000
v 638.7663 4.8619 0.0000
v 638.7663 4.8619 6.0000
v 634.9448 0.7172 0.0000
v 634.9448 0.7172 6.0000
v 631.0912 -2.4839 0.0000
v 631.0912 -2.4839 6.0000
v 625.4203 -5.1823 0.0000
v 625.4203 -5.1823 6.0000
v 621.4434 -6.3629 0.0000
v 621.4434 -6.3629 6.0000
v 615.4477 -6.1968 0.0000
v 615.4477 -6.1968 6.0000
v 610.0462 -4.7775 0.0000
v 610.0462 -4.7775 6.0000
v 606.0004 -1.9397 0.0000
v 606.0004 -1.9397 6.0000
v 602.0237 1.7083 0.0000
v 602.0237 1.7083 6.0000
v 599.0534 5.3656 0.0000
v 599.0534 5.3656 6.0000
v 597.0558 9.0988 0.0000
v 597.0558 9.0988 6.0000
v 595.8713 13.5855 0.0000
v 595.8713 13.5855 6.0000
v 595.0853 18.5598 0.0000
v 595.0853 18.5598 6.0000
v 595.6598 23.0100 0.0000
v 595.6598 23.0100 6.0000
v 597.5730 28.8231 0.0000
v 597.5730 28.8231 6.0000
v 600.2519 32.4703 0.0000
v 600.2519 32.4703 6.0000
v 604.5982 36.8916 0.0000
v 604.5982 36.8916 6.0000
v 609.0599 39.6809 0.0000
v 609.0599 39.6809 6.0000
v 614.5857 41.5914 0.0000
v 614.5857 41.5914 6.0000
v 660.9827 4.8890 0.0000
v 660.9827 4.8890 6.0000
v 665.1089 4.4155 0.0000
v 665.1089 4.4155 6.0000
v 668.7685 3.1436 0.0000
v 668.7685 3.1436 6.0000
v 672.9426 1.1270 0.0000
v 672.9426 1.1270 6.0000
v 676.1262 -1.5427 0.0000
v 676.1262 -1.5427 6.0000
v 679.1807 -5.4221 0.0000
v 679.1807 -5.4221 6.0000
v 682.0143 -9.9005 0.0000
v 682.0143 -9.9005 6.0000
v 683.6386 -14.3768 0.0000
v 683.6386 -14.3768 6.0000
v 684.0511 -20.1830 0.0000
v 684.0511 -20.1830 6.0000
v 682.7803 -26.2526 0.0000
v 682.7803 -26.2526 6.0000
v 679.7002 -31.9860 0.0000
v 679.7002 -31.9860 6.0000
v 675.8788 -36.1418 0.0000
v 675.8788 -36.1418 6.0000
v 672.0336 -39.3430 0.0000
v 672.0336 -39.3430 6.0000
v 666.3542 -42.0414 0.0000
v 666.3542 -42.0414 6.0000
v 660.6948 -42.9748 0.0000
v 660.6948 -42.9748 6.0000
v 656.3816 -43.0560 0.0000
v 656.3816 -43.0560 6.0000
v 650.9801 -41.6366 0.0000
v 650.9801 -41.6366 6.0000
v 646.9342 -38.7878 0.0000
v 646.9342 -38.7878 6.0000
v 642.9659 -35.1398 0.0000
v 642.9659 -35.1398 6.0000
v 640.2243 -31.2499 0.0000
v 640.2243 -31.2499 6.0000
v 637.9894 -27.7604 0.0000
v 637.9894 -27.7604 6.0000
v 636.8134 -23.2738 0.0000
v 636.8134 -23.2738 6.0000
v 636.0189 -18.2995 0.0000
v 636.0189 -18.2995 6.0000
v 636.5934 -13.8493 0.0000
v 636.5934 -13.8493 6.0000
v 638.5049 -8.9797 0.0000
v 638.5049 -8.9797 6.0000
v 641.1846 -4.8662 0.0000
v 641.1846 -4.8662 6.0000
v 644.8108 -1.1541 0.0000
v 644.8108 -1.1541 6.0000
v 649.9935 2.8217 0.0000
v 649.9935 2.8217 6.0000
v 655.7641 4.4987 0.0000
v 655.7641 4.4987 6.0000
v 400.5587 265.9351 0.0000
v 400.5587 265.9351 6.0000
v 394.7843 266.7892 0.0000
v 394.7843 266.7892 6.0000
v 390.3906 268.8507 0.0000
v 390.3906 268.8507 6.0000
v 385.8384 272.0892 0.0000
v 385.8384 272.0892 6.0000
v 381.8047 276.8585 0.0000
v 381.8047 276.8585 6.0000
v 378.5332 282.1593 0.0000
v 378.5332 282.1593 6.0000
v 378.0461 288.7093 0.0000
v 378.0461 288.7093 6.0000
v 378.5466 294.2474 0.0000
v 378.5466 294.2474 6.0000
v 381.0268 300.2038 0.0000
v 381.0268 300.2038 6.0000
v 384.5372 305.3591 0.0000
v 384.5372 305.3591 6.0000
v 389.3466 308.7137 0.0000
v 389.3466 308.7137 6.0000
v 394.4657 310.3251 0.0000
v 394.4657 310.3251 6.0000
v 399.8538 311.0147 0.0000
v 399.8538 311.0147 6.0000
v 405.2986 310.2833 0.0000
v 405.2986 310.2833 6.0000
v 410.2000 308.3874 0.0000
v 410.2000 308.3874 6.0000
v 414.5828 304.9716 0.0000
v 414.5828 304.9716 6.0000
v 417.7632 300.7256 0.0000
v 417.7632 300.7256 6.0000
v 420.4432 295.6368 0.0000
v 420.4432 295.6368 6.0000
v 421.9312 290.7278 0.0000
v 421.9312 290.7278 6.0000
v 421.7194 285.8330 0.0000
v 421.7194 285.8330 6.0000
v 420.3240 281.1179 0.0000
v 420.3240 281.1179 6.0000
v 418.4299 276.5702 0.0000
v 418.4299 276.5702 6.0000
v 415.3695 272.3798 0.0000
v 415.3695 272.3798 6.0000
v 410.3397 268.7924 0.0000
v 410.3397 268.7924 6.0000
v 405.0673 266.6374 0.0000
v 405.0673 266.6374 6.0000
v 419.2025 268.9207 0.0000
v 419.2025 268.9207 6.0000
v 417.5739 266.1596 0.0000
v 417.5739 266.1596 6.0000
v 416.2160 263.4869 0.0000
v 416.2160 263.4869 6.0000
v 415.2949 259.1817 0.0000
v 415.2949 259.1817 6.0000
v 415.0862 256.0074 0.0000
v 415.0862 256.0074 6.0000
v 415.8151 252.2653 0.0000
v 415.8151 252.2653 6.0000
v 416.7813 248.7669 0.0000
v 416.7813 248.7669 6.0000
v 418.0775 245.3901 0.0000
v 418.0775 245.3901 6.0000
v 419.7463 242.2679 0.0000
v 419.7463 242.2679 6.0000
v 422.4228 239.9320 0.0000
v 422.4228 239.9320 6.0000
v 425.1079 237.6072 0.0000
v 425.1079 237.6072 6.0000
v 429.0617 235.4244 0.0000
v 429.0617 235.4244 6.0000
v 433.4570 234.2620 0.0000
v 433.4570 234.2620 6.0000
v 438.4628 233.9311 0.0000
v 438.4628 233.9311 6.0000
v 444.3501 234.7197 0.0000
v 444.3501 234.7197 6.0000
v 448.7601 236.9984 0.0000
v 448.7601 236.9984 6.0000
v 451.8171 239.3017 0.0000
v 451.8171 239.3017 6.0000
v 454.7150 242.4823 0.0000
v 454.7150 242.4823 6.0000
v 457.4967 246.8508 0.0000
v 457.4967 246.8508 6.0000
v 458.8568 250.7445 0.0000
v 458.8568 250.7445 6.0000
v 459.5837 255.2277 0.0000
v 459.5837 255.2277 6.0000
v 459.4982 259.3794 0.0000
v 459.4982 259.3794 6.0000
v 458.8111 262.8994 0.0000
v 458.8111 262.8994 6.0000
v 456.9065 266.5992 0.0000
v 456.9065 266.5992 6.0000
v 454.7477 269.9887 0.0000
v 454.7477 269.9887 6.0000
v 452.1398 272.8240 0.0000
v 452.1398 272.8240 6.0000
v 448.9299 274.8389 0.0000
v 448.9299 274.8389 6.0000
v 445.4488 276.5658 0.0000
v 445.4488 276.5658 6.0000
v 441.6799 278.0600 0.0000
v 441.6799 278.0600 6.0000
v 438.0612 278.4883 0.0000
v 438.0612 278.4883 6.0000
v 433.5194 278.1524 0.0000
v 433.5194 278.1524 6.0000
v 428.6455 276.5406 0.0000
v 428.6455 276.5406 6.0000
v 423.9391 274.0515 0.0000
v 423.9391 274.0515 6.0000
v 421.5838 271.6581 0.0000
v 421.5838 271.6581 6.0000
v 474.2185 201.5537 0.0000
v 474.2185 201.5537 6.0000
v 479.0650 202.0001 0.0000
v 479.0650 202.0001 6.0000
v 483.3292 203.0913 0.0000
v 483.3292 203.0913 6.0000
v 488.1469 206.3350 0.0000
v 488.1469 206.3350 6.0000
v 492.2387 210.3349 0.0000
v 492.2387 210.3349 6.0000
v 494.8272 215.4696 0.0000
v 494.8272 215.4696 6.0000
v 495.9025 220.8846 0.0000
v 495.9025 220.8846 6.0000
v 496.1835 226.6674 0.0000
v 496.1835 226.6674 6.0000
v 494.6891 232.7197 0.0000
v 494.6891 232.7197 6.0000
v 490.9029 238.7651 0.0000
v 490.9029 238.7651 6.0000
v 485.3716 243.1153 0.0000
v 485.3716 243.1153 6.0000
v 479.2534 245.5572 0.0000
v 479.2534 245.5572 6.0000
v 474.1298 246.1770 0.0000
v 474.1298 246.1770 6.0000
v 468.9697 245.3315 0.0000
v 468.9697 245.3315 6.0000
v 463.9850 243.2870 0.0000
v 463.9850 243.2870 6.0000
v 459.4809 240.4423 0.0000
v 459.4809 240.4423 6.0000
v 455.7611 236.3752 0.0000
v 455.7611 236.3752 6.0000
v 453.3511 231.7508 0.0000
v 453.3511 231.7508 6.0000
v 452.0739 226.9244 0.0000
v 452.0739 226.9244 6.0000
v 451.8268 221.2415 0.0000
v 451.8268 221.2415 6.0000
v 453.2619 215.1116 0.0000
v 453.2619 215.1116 6.0000
v 456.6611 210.2102 0.0000
v 456.6611 210.2102 6.0000
v 461.9046 205.7163 0.0000
v 461.9046 205.7163 6.0000
v 467.0332 203.1429 0.0000
v 467.0332 203.1429 6.0000
v 470.7690 202.0039 0.0000
v 470.7690 202.0039 6.0000
v 359.4813 264.0338 0.0000
v 359.4813 264.0338 6.0000
v 363.2011 263.4387 0.0000
v 363.2011 263.4387 6.0000
v 367.9763 261.8982 0.0000
v 367.9763 261.8982 6.0000
v 371.7097 259.4494 0.0000
v 371.7097 259.4494 6.0000
v 375.3492 256.5234 0.0000
v 375.3492 256.5234 6.0000
v 378.5131 252.4549 0.0000
v 378.5131 252.4549 6.0000
v 380.9230 247.6663 0.0000
v 380.9230 247.6663 6.0000
v 381.8093 242.0702 0.0000
v 381.8093 242.0702 6.0000
v 381.4609 236.4652 0.0000
v 381.4609 236.4652 6.0000
v 379.7692 231.6063 0.0000
v 379.7692 231.6063 6.0000
v 376.8855 226.9827 0.0000
v 376.8855 226.9827 6.0000
v 372.8964 223.6932 0.0000
v 372.8964 223.6932 6.0000
v 368.9011 221.6247 0.0000
v 368.9011 221.6247 6.0000
v 364.0872 220.4679 0.0000
v 364.0872 220.4679 6.0000
v 360.5841 219.3753 0.0000
v 360.5841 219.3753 6.0000
v 355.2238 220.0844 0.0000
v 355.2238 220.0844 6.0000
v 350.1607 221.4367 0.0000
v 350.1607 221.4367 6.0000
v 345.6155 223.8760 0.0000
v 345.6155 223.8760 6.0000
v 341.8084 227.6570 0.0000
v 341.8084 227.6570 6.0000
v 339.3054 232.4013 0.0000
v 339.3054 232.4013 6.0000
v 337.8083 236.9441 0.0000
v 337.8083 236.9441 6.0000
v 337.1671 242.3844 0.0000
v 337.1671 242.3844 6.0000
v 337.9122 247.5447 0.0000
v 337.9122 247.5447 6.0000
v 339.7124 251.5930 0.0000
v 339.7124 251.5930 6.0000
v 342.7326 256.9267 0.0000
v 342.7326 256.9267 6.0000
v 347.1024 260.2711 0.0000
v 347.1024 260.2711 6.0000
v 351.0392 262.7615 0.0000
v 351.0392 262.7615 6.0000
v 355.2858 263.4975 0.0000
v 355.2858 263.4975 6.0000
v 422.2840 158.4784 0.0000
v 422.2840 158.4784 6.0000
v 418.7453 161.0601 0.0000
v 418.7453 161.0601 6.0000
v 416.1627 163.9175 0.0000
v 416.1627 163.9175 6.0000
v 414.0715 167.2847 0.0000
v 414.0715 167.2847 6.0000
v 412.2450 172.0056 0.0000
v 412.2450 172.0056 6.0000
v 411.6777 176.3135 0.0000
v 411.6777 176.3135 6.0000
v 411.8296 180.8089 0.0000
v 411.8296 180.8089 6.0000
v 413.4526 185.0795 0.0000
v 413.4526 185.0795 6.0000
v 415.1091 189.2391 0.0000
v 415.1091 189.2391 6.0000
v 418.5249 193.4955 0.0000
v 418.5249 193.4955 6.0000
v 422.8430 196.3515 0.0000
v 422.8430 196.3515 6.0000
v 427.8190 198.2296 0.0000
v 427.8190 198.2296 6.0000
v 433.5376 199.3071 0.0000
v 433.5376 199.3071 6.0000
v 438.4422 199.1317 0.0000
v 438.4422 199.1317 6.0000
v 443.4872 197.0913 0.0000
v 443.4872 197.0913 6.0000
v 448.2761 193.6970 0.0000
v 448.2761 193.6970 6.0000
v 452.0912 189.6608 0.0000
v 452.0912 189.6608 6.0000
v 454.4589 184.8390 0.0000
v 454.4589 184.8390 6.0000
v 455.3907 181.0188 0.0000
v 455.3907 181.0188 6.0000
v 455.7782 175.5123 0.0000
v 455.7782 175.5123 6.0000
v 454.3821 170.4198 0.0000
v 454.3821 170.4198 6.0000
v 451.8099 164.9853 0.0000
v 451.8099 164.9853 6.0000
v 448.2336 160.8181 0.0000
v 448.2336 160.8181 6.0000
v 444.4902 157.7390 0.0000
v 444.4902 157.7390 6.0000
v 439.4630 155.5835 0.0000
v 439.4630 155.5835 6.0000
v 434.0409 154.8496 0.0000
v 434.0409 154.8496 6.0000
v 429.6613 155.4125 0.0000
v 429.6613 155.4125 6.0000
v 425.3169 156.7635 0.0000
v 425.3169 156.7635 6.0000
v 412.6708 225.0642 0.0000
v 412.6708 225.0642 6.0000
v 408.3806 228.3132 0.0000
v 408.3806 228.3132 6.0000
v 404.0291 230.3413 0.0000
v 404.0291 230.3413 6.0000
v 399.7938 231.1593 0.0000
v 399.7938 231.1593 6.0000
v 395.3455 231.1119 0.0000
v 395.3455 231.1119 6.0000
v 391.5730 230.6858 0.0000
v 391.5730 230.6858 6.0000
v 386.5884 228.6746 0.0000
v 386.5884 228.6746 6.0000
v 383.7692 226.9703 0.0000
v 383.7692 226.9703 6.0000
v 380.2282 223.5911 0.0000
v 380.2282 223.5911 6.0000
v 377.4133 219.5557 0.0000
v 377.4133 219.5557 6.0000
v 375.6559 215.8070 0.0000
v 375.6559 215.8070 6.0000
v 374.5914 211.6907 0.0000
v 374.5914 211.6907 6.0000
v 374.9950 205.7624 0.0000
v 374.9950 205.7624 6.0000
v 376.1531 200.8429 0.0000
v 376.1531 200.8429 6.0000
v 378.6136 195.9432 0.0000
v 378.6136 195.9432 6.0000
v 382.5479 192.3618 0.0000
v 382.5479 192.3618 6.0000
v 386.2557 189.7465 0.0000
v 386.2557 189.7465 6.0000
v 391.0646 188.1282 0.0000
v 391.0646 188.1282 6.0000
v 395.1224 187.3217 0.0000
v 395.1224 187.3217 6.0000
v 399.5792 187.3691 0.0000
v 399.5792 187.3691 6.0000
v 404.1733 188.5263 0.0000
v 404.1733 188.5263 6.0000
v 407.9987 190.1733 0.0000
v 407.9987 190.1733 6.0000
v 411.0811 192.4544 0.0000
v 411.0811 192.4544 6.0000
v 413.7502 195.3690 0.0000
v 413.7502 195.3690 6.0000
v 416.0494 199.4275 0.0000
v 416.0494 199.4275 6.0000
v 417.5535 203.4431 0.0000
v 417.5535 203.4431 6.0000
v 418.6265 207.5594 0.0000
v 418.6265 207.5594 6.0000
v 418.2637 212.7105 0.0000
v 418.2637 212.7105 6.0000
v 417.0296 217.7190 0.0000
v 417.0296 217.7190 6.0000
v 415.0586 222.0739 0.0000
v 415.0586 222.0739 6.0000
v 573.6549 98.7310 0.0000
v 573.6549 98.7310 6.0000
v 609.9221 67.8963 0.0000
v 609.9221 67.8963 6.0000
v 608.7694 66.4553 0.0000
v 608.7694 66.4553 6.0000
v 572.4431 97.3234 0.0000
v 572.4431 97.3234 6.0000
v 572.4431 97.3234 0.0000
v 572.4431 97.3234 6.0000
v 571.0957 95.7940 0.0000
v 571.0957 95.7940 6.0000
v 607.4897 64.9257 0.0000
v 607.4897 64.9257 6.0000
v 608.7694 66.4553 0.0000
v 608.7694 66.4553 6.0000
v 251.0867 381.0287 0.0000
v 251.0867 381.0287 6.0000
v 458.5379 200.5052 0.0000
v 458.5379 200.5052 6.0000
v 456.5634 198.2554 0.0000
v 456.5634 198.2554 6.0000
v 249.1037 378.7678 0.0000
v 249.1037 378.7678 6.0000
v 249.1037 378.7678 0.0000
v 249.1037 378.7678 6.0000
v 247.4682 376.8838 0.0000
v 247.4682 376.8838 6.0000
v 455.2319 196.1155 0.0000
v 455.2319 196.1155 6.0000
v 457.3486 197.5214 0.0000
v 457.3486 197.5214 6.0000
v 145.8122 482.2126 0.0000
v 145.8122 482.2126 6.0000
v 133.0581 467.5282 0.0000
v 133.0581 467.5282 6.0000
v 162.5766 443.0198 0.0000
v 162.5766 443.0198 6.0000
v 158.4067 437.9658 0.0000
v 158.4067 437.9658 6.0000
v 167.1373 430.6901 0.0000
v 167.1373 430.6901 6.0000
v 172.1202 436.3865 0.0000
v 172.1202 436.3865 6.0000
v 236.8602 379.6006 0.0000
v 236.8602 379.6006 6.0000
v 244.1462 377.6780 0.0000
v 244.1462 377.6780 6.0000
v 248.7239 383.7637 0.0000
v 248.7239 383.7637 6.0000
v 245.8614 390.7177 0.0000
v 245.8614 390.7177 6.0000
v 194.3949 436.6008 0.0000
v 194.3949 436.6008 6.0000
v 196.6402 438.9499 0.0000
v 196.6402 438.9499 6.0000
v 182.1108 452.0861 0.0000
v 182.1108 452.0861 6.0000
v 190.3479 461.5617 0.0000
v 190.3479 461.5617 6.0000
v 183.0864 467.5581 0.0000
v 183.0864 467.5581 6.0000
v 174.5684 457.0840 0.0000
v 174.5684 457.0840 6.0000
v 168.5578 618.7819 0.0000
v 168.5578 618.7819 6.0000
v 177.7267 610.8505 0.0000
v 177.7267 610.8505 6.0000
v 199.5492 636.7962 0.0000
v 199.5492 636.7962 6.0000
v 190.2619 644.7166 0.0000
v 190.2619 644.7166 6.0000
v 234.9953 -398.0039 0.0000
v 234.9953 -398.0039 6.0000
v 235.0189 -398.9364 0.0000
v 235.0189 -398.9364 6.0000
v 234.7887 -399.9572 0.0000
v 234.7887 -399.9572 6.0000
v 234.2795 -400.9220 0.0000
v 234.2795 -400.9220 6.0000
v 233.1866 -401.9634 0.0000
v 233.1866 -401.9634 6.0000
v 232.2131 -402.4389 0.0000
v 232.2131 -402.4389 6.0000
v 231.2402 -402.6258 0.0000
v 231.2402 -402.6258 6.0000
v 230.1239 -402.5461 0.0000
v 230.1239 -402.5461 6.0000
v 228.7464 -401.9885 0.0000
v 228.7464 -401.9885 6.0000
v 228.0370 -401.4100 0.0000
v 228.0370 -401.4100 6.0000
v 227.4380 -400.6319 0.0000
v 227.4380 -400.6319 6.0000
v 227.1094 -399.9320 0.0000
v 227.1094 -399.9320 6.0000
v 226.8912 -399.0214 0.0000
v 226.8912 -399.0214 6.0000
v 226.8843 -398.1888 0.0000
v 226.8843 -398.1888 6.0000
v 227.1060 -397.2124 0.0000
v 227.1060 -397.2124 6.0000
v 227.4626 -396.4471 0.0000
v 227.4626 -396.4471 6.0000
v 227.8356 -395.9372 0.0000
v 227.8356 -395.9372 6.0000
v 228.6404 -395.2172 0.0000
v 228.6404 -395.2172 6.0000
v 229.8255 -394.6532 0.0000
v 229.8255 -394.6532 6.0000
v 230.6715 -394.5105 0.0000
v 230.6715 -394.5105 6.0000
v 231.3396 -394.5117 0.0000
v 231.3396 -394.5117 6.0000
v 232.6499 -394.8693 0.0000
v 232.6499 -394.8693 6.0000
v 233.4693 -395.3592 0.0000
v 233.4693 -395.3592 6.0000
v 234.2628 -396.1932 0.0000
v 234.2628 -396.1932 6.0000
v 234.7264 -397.0155 0.0000
v 234.7264 -397.0155 6.0000
v 453.8417 -668.5934 0.0000
v 453.8417 -668.5934 6.0000
v 455.4367 -670.5166 0.0000
v 455.4367 -670.5166 6.0000
v 459.3330 -667.3157 0.0000
v 459.3330 -667.3157 6.0000
v 457.7295 -665.3813 0.0000
v 457.7295 -665.3813 6.0000
v 628.7840 -814.1982 0.0000
v 628.7840 -814.1982 6.0000
v 635.0714 -821.9129 0.0000
v 635.0714 -821.9129 6.0000
v 637.2398 -820.1629 0.0000
v 637.2398 -820.1629 6.0000
v 630.9439 -812.4482 0.0000
v 630.9439 -812.4482 6.0000
v 360.6185 -525.4200 0.0000
v 360.6185 -525.4200 6.0000
v 372.2286 -535.9419 0.0000
v 372.2286 -535.9419 6.0000
v 376.3217 -531.4537 0.0000
v 376.3217 -531.4537 6.0000
v 378.9477 -533.8450 0.0000
v 378.9477 -533.8450 6.0000
v 381.3375 -531.2186 0.0000
v 381.3375 -531.2186 6.0000
v 367.1015 -518.3165 0.0000
v 367.1015 -518.3165 6.0000
v 295.3314 -411.3791 0.0000
v 295.3314 -411.3791 6.0000
v 298.8380 -408.4883 0.0000
v 298.8380 -408.4883 6.0000
v 304.9140 -415.7922 0.0000
v 304.9140 -415.7922 6.0000
v 301.4074 -418.6941 0.0000
v 301.4074 -418.6941 6.0000
v 419.7364 -483.5681 0.0000
v 419.7364 -483.5681 6.0000
v 425.9586 -494.2800 0.0000
v 425.9586 -494.2800 6.0000
v 433.6234 -493.0062 0.0000
v 433.6234 -493.0062 6.0000
v 425.0154 -478.0386 0.0000
v 425.0154 -478.0386 6.0000
v 422.3808 -480.3871 0.0000
v 422.3808 -480.3871 6.0000
v 422.7854 -481.1537 0.0000
v 422.7854 -481.1537 6.0000
v 421.0668 -482.1052 0.0000
v 421.0668 -482.1052 6.0000
v 116.1920 -133.8207 0.0000
v 116.1920 -133.8207 6.0000
v 109.6717 -142.8775 0.0000
v 109.6717 -142.8775 6.0000
v 112.9318 -145.2146 0.0000
v 112.9318 -145.2146 6.0000
v 111.3972 -147.3430 0.0000
v 111.3972 -147.3430 6.0000
v 115.9073 -150.5593 0.0000
v 115.9073 -150.5593 6.0000
v 116.6534 -149.5284 0.0000
v 116.6534 -149.5284 6.0000
v 121.0285 -152.6446 0.0000
v 121.0285 -152.6446 6.0000
v 124.6574 -147.6117 0.0000
v 124.6574 -147.6117 6.0000
v 120.7132 -144.7961 0.0000
v 120.7132 -144.7961 6.0000
v 124.3930 -139.6746 0.0000
v 124.3930 -139.6746 6.0000
v -316.2736 312.5014 0.0000
v -316.2736 312.5014 6.0000
v -300.9118 328.2456 0.0000
v -300.9118 328.2456 6.0000
v -286.6043 314.3985 0.0000
v -286.6043 314.3985 6.0000
v -297.0855 303.6512 0.0000
v -297.0855 303.6512 6.0000
v -300.8334 307.2770 0.0000
v -300.8334 307.2770 6.0000
v -311.5689 296.2638 0.0000
v -311.5689 296.2638 6.0000
v -318.0178 302.5145 0.0000
v -318.0178 302.5145 6.0000
v -312.1629 308.5197 0.0000
v -312.1629 308.5197 6.0000

f 1 3 4 2
f 3 5 6 4
f 5 7 8 6
f 7 9 10 8
f 9 11 12 10
f 11 13 14 12
f 13 15 16 14
f 15 17 18 16
f 17 19 20 18
f 19 21 22 20
f 21 23 24 22
f 23 25 26 24
f 25 27 28 26
f 27 29 30 28
f 29 31 32 30
f 31 33 34 32
f 33 35 36 34
f 35 1 2 36
f 35 33 31 29 27 25 23 21 19 17 15 13 11 9 7 5 3 1
f 2 4 6 8 10 12 14 16 18 20 22 24 26 28 30 32 34 36
f 37 39 40 38
f 39 41 42 40
f 41 43 44 42
f 43 45 46 44
f 45 47 48 46
f 47 49 50 48
f 49 51 52 50
f 51 53 54 52
f 53 55 56 54
f 55 57 58 56
f 57 59 60 58
f 59 37 38 60
f 59 57 55 53 51 49 47 45 43 41 39 37
f 38 40 42 44 46 48 50 52 54 56 58 60
f 61 63 64 62
f 63 65 66 64
f 65 67 68 66
f 67 69 70 68
f 69 71 72 70
f 71 73 74 72
f 73 75 76 74
f 75 77 78 76
f 77 79 80 78
f 79 81 82 80
f 81 83 84 82
f 83 61 62 84
f 83 81 79 77 75 73 71 69 67 65 63 61
f 62 64 66 68 70 72 74 76 78 80 82 84
f 85 87 88 86
f 87 89 90 88
f 89 91 92 90
f 91 93 94 92
f 93 95 96 94
f 95 97 98 96
f 97 99 100 98
f 99 101 102 100
f 101 103 104 102
f 103 105 106 104
f 105 107 108 106
f 107 85 86 108
f 107 105 103 101 99 97 95 93 91 89 87 85
f 86 88 90 92 94 96 98 100 102 104 106 108
f 109 111 112 110
f 111 113 114 112
f 113 115 116 114
f 115 117 118 116
f 117 119 120 118
f 119 121 122 120
f 121 123 124 122
f 123 125 126 124
f 125 127 128 126
f 127 129 130 128
f 129 131 132 130
f 131 109 110 132
f 131 129 127 125 123 121 119 117 115 113 111 109
f 110 112 114 116 118 120 122 124 126 128 130 132
f 133 135 136 134
f 135 137 138 136
f 137 139 140 138
f 139 133 134 140
f 139 137 135 133
f 134 136 138 140
f 141 143 144 142
f 143 145 146 144
f 145 147 148 146
f 147 149 150 148
f 149 141 142 150
f 149 147 145 143 141
f 142 144 146 148 150
f 151 153 154 152
f 153 155 156 154
f 155 157 158 156
f 157 151 152 158
f 157 155 153 151
f 152 154 156 158
f 159 161 162 160
f 161 163 164 162
f 163 165 166 164
f 165 159 160 166
f 165 163 161 159
f 160 162 164 166
f 167 169 170 168
f 169 171 172 170
f 171 173 174 172
f 173 167 168 174
f 173 171 169 167
f 168 170 172 174
f 175 177 178 176
f 177 179 180 178
f 179 181 182 180
f 181 183 184 182
f 183 175 176 184
f 183 181 179 177 175
f 176 178 180 182 184
f 185 187 188 186
f 187 189 190 188
f 189 191 192 190
f 191 185 186 192
f 191 189 187 185
f 186 188 190 192
f 193 195 196 194
f 195 197 198 196
f 197 199 200 198
f 199 193 194 200
f 199 197 195 193
f 194 196 198 200
f 201 203 204 202
f 203 205 206 204
f 205 207 208 206
f 207 209 210 208
f 209 211 212 210
f 211 213 214 212
f 213 215 216 214
f 215 201 202 216
f 215 213 211 209 207 205 203 201
f 202 204 206 208 210 212 214 216
f 217 219 220 218
f 219 221 222 220
f 221 223 224 222
f 223 225 226 224
f 225 227 228 226
f 227 229 230 228
f 229 231 232 230
f 231 217 218 232
f 231 229 227 225 223 221 219 217
f 218 220 222 224 226 228 230 232
f 233 235 236 234
f 235 237 238 236
f 237 239 240 238
f 239 241 242 240
f 241 243 244 242
f 243 245 246 244
f 245 233 234 246
f 245 243 241 239 237 235 233
f 234 236 238 240 242 244 246
f 247 249 250 248
f 249 251 252 250
f 251 253 254 252
f 253 255 256 254
f 255 257 258 256
f 257 259 260 258
f 259 261 262 260
f 261 247 248 262
f 261 259 257 255 253 251 249 247
f 248 250 252 254 256 258 260 262
f 263 265 266 264
f 265 267 268 266
f 267 269 270 268
f 269 263 264 270
f 269 267 265 263
f 264 266 268 270
f 271 273 274 272
f 273 275 276 274
f 275 277 278 276
f 277 279 280 278
f 279 281 282 280
f 281 283 284 282
f 283 285 286 284
f 285 271 272 286
f 285 283 281 279 277 275 273 271
f 272 274 276 278 280 282 284 286
f 287 289 290 288
f 289 291 292 290
f 291 293 294 292
f 293 287 288 294
f 293 291 289 287
f 288 290 292 294
f 295 297 298 296
f 297 299 300 298
f 299 301 302 300
f 301 295 296 302
f 301 299 297 295
f 296 298 300 302
f 303 305 306 304
f 305 307 308 306
f 307 309 310 308
f 309 311 312 310
f 311 313 314 312
f 313 315 316 314
f 315 317 318 316
f 317 319 320 318
f 319 321 322 320
f 321 303 304 322
f 321 319 317 315 313 311 309 307 305 303
f 304 306 308 310 312 314 316 318 320 322
f 323 325 326 324
f 325 327 328 326
f 327 329 330 328
f 329 323 324 330
f 329 327 325 323
f 324 326 328 330
f 331 333 334 332
f 333 335 336 334
f 335 337 338 336
f 337 331 332 338
f 337 335 333 331
f 332 334 336 338
f 339 341 342 340
f 341 343 344 342
f 343 345 346 344
f 345 339 340 346
f 345 343 341 339
f 340 342 344 346
f 347 349 350 348
f 349 351 352 350
f 351 353 354 352
f 353 347 348 354
f 353 351 349 347
f 348 350 352 354
f 355 357 358 356
f 357 359 360 358
f 359 361 362 360
f 361 363 364 362
f 363 365 366 364
f 365 367 368 366
f 367 369 370 368
f 369 355 356 370
f 369 367 365 363 361 359 357 355
f 356 358 360 362 364 366 368 370
f 371 373 374 372
f 373 375 376 374
f 375 377 378 376
f 377 371 372 378
f 377 375 373 371
f 372 374 376 378
f 379 381 382 380
f 381 383 384 382
f 383 385 386 384
f 385 387 388 386
f 387 389 390 388
f 389 391 392 390
f 391 393 394 392
f 393 379 380 394
f 393 391 389 387 385 383 381 379
f 380 382 384 386 388 390 392 394
f 395 397 398 396
f 397 399 400 398
f 399 401 402 400
f 401 403 404 402
f 403 405 406 404
f 405 395 396 406
f 405 403 401 399 397 395
f 396 398 400 402 404 406
f 407 409 410 408
f 409 411 412 410
f 411 413 414 412
f 413 415 416 414
f 415 417 418 416
f 417 407 408 418
f 417 415 413 411 409 407
f 408 410 412 414 416 418
f 419 421 422 420
f 421 423 424 422
f 423 425 426 424
f 425 419 420 426
f 425 423 421 419
f 420 422 424 426
f 427 429 430 428
f 429 431 432 430
f 431 433 434 432
f 433 427 428 434
f 433 431 429 427
f 428 430 432 434
f 435 437 438 436
f 437 439 440 438
f 439 441 442 440
f 441 435 436 442
f 441 439 437 435
f 436 438 440 442
f 443 445 446 444
f 445 447 448 446
f 447 449 450 448
f 449 443 444 450
f 449 447 445 443
f 444 446 448 450
f 451 453 454 452
f 453 455 456 454
f 455 457 458 456
f 457 451 452 458
f 457 455 453 451
f 452 454 456 458
f 459 461 462 460
f 461 463 464 462
f 463 465 466 464
f 465 459 460 466
f 465 463 461 459
f 460 462 464 466
f 467 469 470 468
f 469 471 472 470
f 471 473 474 472
f 473 467 468 474
f 473 471 469 467
f 468 470 472 474
f 475 477 478 476
f 477 479 480 478
f 479 481 482 480
f 481 483 484 482
f 483 485 486 484
f 485 487 488 486
f 487 489 490 488
f 489 491 492 490
f 491 493 494 492
f 493 495 496 494
f 495 475 476 496
f 495 493 491 489 487 485 483 481 479 477 475
f 476 478 480 482 484 486 488 490 492 494 496
f 497 499 500 498
f 499 501 502 500
f 501 503 504 502
f 503 497 498 504
f 503 501 499 497
f 498 500 502 504
f 505 507 508 506
f 507 509 510 508
f 509 511 512 510
f 511 505 506 512
f 511 509 507 505
f 506 508 510 512
f 513 515 516 514
f 515 517 518 516
f 517 519 520 518
f 519 513 514 520
f 519 517 515 513
f 514 516 518 520
f 521 523 524 522
f 523 525 526 524
f 525 527 528 526
f 527 529 530 528
f 529 531 532 530
f 531 521 522 532
f 531 529 527 525 523 521
f 522 524 526 528 530 532
f 533 535 536 534
f 535 537 538 536
f 537 539 540 538
f 539 533 534 540
f 539 537 535 533
f 534 536 538 540
f 541 543 544 542
f 543 545 546 544
f 545 547 548 546
f 547 541 542 548
f 547 545 543 541
f 542 544 546 548
f 549 551 552 550
f 551 553 554 552
f 553 555 556 554
f 555 549 550 556
f 555 553 551 549
f 550 552 554 556
f 557 559 560 558
f 559 561 562 560
f 561 563 564 562
f 563 557 558 564
f 563 561 559 557
f 558 560 562 564
f 565 567 568 566
f 567 569 570 568
f 569 571 572 570
f 571 565 566 572
f 571 569 567 565
f 566 568 570 572
f 573 575 576 574
f 575 577 578 576
f 577 579 580 578
f 579 581 582 580
f 581 583 584 582
f 583 585 586 584
f 585 587 588 586
f 587 589 590 588
f 589 591 592 590
f 591 593 594 592
f 593 595 596 594
f 595 597 598 596
f 597 599 600 598
f 599 601 602 600
f 601 573 574 602
f 601 599 597 595 593 591 589 587 585 583 581 579 577 575 573
f 574 576 578 580 582 584 586 588 590 592 594 596 598 600 602
f 603 605 606 604
f 605 607 608 606
f 607 609 610 608
f 609 603 604 610
f 609 607 605 603
f 604 606 608 610
f 611 613 614 612
f 613 615 616 614
f 615 617 618 616
f 617 619 620 618
f 619 621 622 620
f 621 623 624 622
f 623 625 626 624
f 625 611 612 626
f 625 623 621 619 617 615 613 611
f 612 614 616 618 620 622 624 626
f 627 629 630 628
f 629 631 632 630
f 631 633 634 632
f 633 627 628 634
f 633 631 629 627
f 628 630 632 634
f 635 637 638 636
f 637 639 640 638
f 639 641 642 640
f 641 635 636 642
f 641 639 637 635
f 636 638 640 642
f 643 645 646 644
f 645 647 648 646
f 647 649 650 648
f 649 643 644 650
f 649 647 645 643
f 644 646 648 650
f 651 653 654 652
f 653 655 656 654
f 655 657 658 656
f 657 651 652 658
f 657 655 653 651
f 652 654 656 658
f 659 661 662 660
f 661 663 664 662
f 663 665 666 664
f 665 659 660 666
f 665 663 661 659
f 660 662 664 666
f 667 669 670 668
f 669 671 672 670
f 671 673 674 672
f 673 667 668 674
f 673 671 669 667
f 668 670 672 674
f 675 677 678 676
f 677 679 680 678
f 679 681 682 680
f 681 683 684 682
f 683 685 686 684
f 685 687 688 686
f 687 689 690 688
f 689 691 692 690
f 691 693 694 692
f 693 675 676 694
f 693 691 689 687 685 683 681 679 677 675
f 676 678 680 682 684 686 688 690 692 694
f 695 697 698 696
f 697 699 700 698
f 699 701 702 700
f 701 703 704 702
f 703 705 706 704
f 705 707 708 706
f 707 709 710 708
f 709 695 696 710
f 709 707 705 703 701 699 697 695
f 696 698 700 702 704 706 708 710
f 711 713 714 712
f 713 715 716 714
f 715 717 718 716
f 717 711 712 718
f 717 715 713 711
f 712 714 716 718
f 719 721 722 720
f 721 723 724 722
f 723 725 726 724
f 725 719 720 726
f 725 723 721 719
f 720 722 724 726
f 727 729 730 728
f 729 731 732 730
f 731 733 734 732
f 733 735 736 734
f 735 737 738 736
f 737 739 740 738
f 739 741 742 740
f 741 743 744 742
f 743 745 746 744
f 745 727 728 746
f 745 743 741 739 737 735 733 731 729 727
f 728 730 732 734 736 738 740 742 744 746
f 747 749 750 748
f 749 751 752 750
f 751 753 754 752
f 753 755 756 754
f 755 757 758 756
f 757 747 748 758
f 757 755 753 751 749 747
f 748 750 752 754 756 758
f 759 761 762 760
f 761 763 764 762
f 763 765 766 764
f 765 759 760 766
f 765 763 761 759
f 760 762 764 766
f 767 769 770 768
f 769 771 772 770
f 771 773 774 772
f 773 767 768 774
f 773 771 769 767
f 768 770 772 774
f 775 777 778 776
f 777 779 780 778
f 779 781 782 780
f 781 775 776 782
f 781 779 777 775
f 776 778 780 782
f 783 785 786 784
f 785 787 788 786
f 787 789 790 788
f 789 791 792 790
f 791 783 784 792
f 791 789 787 785 783
f 784 786 788 790 792
f 793 795 796 794
f 795 797 798 796
f 797 799 800 798
f 799 793 794 800
f 799 797 795 793
f 794 796 798 800
f 801 803 804 802
f 803 805 806 804
f 805 807 808 806
f 807 801 802 808
f 807 805 803 801
f 802 804 806 808
f 809 811 812 810
f 811 813 814 812
f 813 815 816 814
f 815 809 810 816
f 815 813 811 809
f 810 812 814 816
f 817 819 820 818
f 819 821 822 820
f 821 823 824 822
f 823 825 826 824
f 825 817 818 826
f 825 823 821 819 817
f 818 820 822 824 826
f 827 829 830 828
f 829 831 832 830
f 831 833 834 832
f 833 835 836 834
f 835 837 838 836
f 837 827 828 838
f 837 835 833 831 829 827
f 828 830 832 834 836 838
f 839 841 842 840
f 841 843 844 842
f 843 845 846 844
f 845 839 840 846
f 845 843 841 839
f 840 842 844 846
f 847 849 850 848
f 849 851 852 850
f 851 853 854 852
f 853 847 848 854
f 853 851 849 847
f 848 850 852 854
f 855 857 858 856
f 857 859 860 858
f 859 861 862 860
f 861 855 856 862
f 861 859 857 855
f 856 858 860 862
f 863 865 866 864
f 865 867 868 866
f 867 869 870 868
f 869 863 864 870
f 869 867 865 863
f 864 866 868 870
f 871 873 874 872
f 873 875 876 874
f 875 877 878 876
f 877 871 872 878
f 877 875 873 871
f 872 874 876 878
f 879 881 882 880
f 881 883 884 882
f 883 885 886 884
f 885 887 888 886
f 887 889 890 888
f 889 879 880 890
f 889 887 885 883 881 879
f 880 882 884 886 888 890
f 891 893 894 892
f 893 895 896 894
f 895 897 898 896
f 897 891 892 898
f 897 895 893 891
f 892 894 896 898
f 899 901 902 900
f 901 903 904 902
f 903 905 906 904
f 905 899 900 906
f 905 903 901 899
f 900 902 904 906
f 907 909 910 908
f 909 911 912 910
f 911 913 914 912
f 913 907 908 914
f 913 911 909 907
f 908 910 912 914
f 915 917 918 916
f 917 919 920 918
f 919 921 922 920
f 921 915 916 922
f 921 919 917 915
f 916 918 920 922
f 923 925 926 924
f 925 927 928 926
f 927 929 930 928
f 929 931 932 930
f 931 933 934 932
f 933 935 936 934
f 935 937 938 936
f 937 923 924 938
f 937 935 933 931 929 927 925 923
f 924 926 928 930 932 934 936 938
f 939 941 942 940
f 941 943 944 942
f 943 945 946 944
f 945 939 940 946
f 945 943 941 939
f 940 942 944 946
f 947 949 950 948
f 949 951 952 950
f 951 953 954 952
f 953 955 956 954
f 955 957 958 956
f 957 959 960 958
f 959 961 962 960
f 961 947 948 962
f 961 959 957 955 953 951 949 947
f 948 950 952 954 956 958 960 962
f 963 965 966 964
f 965 967 968 966
f 967 969 970 968
f 969 971 972 970
f 971 973 974 972
f 973 963 964 974
f 973 971 969 967 965 963
f 964 966 968 970 972 974
f 975 977 978 976
f 977 979 980 978
f 979 981 982 980
f 981 975 976 982
f 981 979 977 975
f 976 978 980 982
f 983 985 986 984
f 985 987 988 986
f 987 989 990 988
f 989 983 984 990
f 989 987 985 983
f 984 986 988 990
f 991 993 994 992
f 993 995 996 994
f 995 997 998 996
f 997 991 992 998
f 997 995 993 991
f 992 994 996 998
f 999 1001 1002 1000
f 1001 1003 1004 1002
f 1003 1005 1006 1004
f 1005 1007 1008 1006
f 1007 999 1000 1008
f 1007 1005 1003 1001 999
f 1000 1002 1004 1006 1008
f 1009 1011 1012 1010
f 1011 1013 1014 1012
f 1013 1015 1016 1014
f 1015 1009 1010 1016
f 1015 1013 1011 1009
f 1010 1012 1014 1016
f 1017 1019 1020 1018
f 1019 1021 1022 1020
f 1021 1023 1024 1022
f 1023 1025 1026 1024
f 1025 1027 1028 1026
f 1027 1029 1030 1028
f 1029 1031 1032 1030
f 1031 1017 1018 1032
f 1031 1029 1027 1025 1023 1021 1019 1017
f 1018 1020 1022 1024 1026 1028 1030 1032
f 1033 1035 1036 1034
f 1035 1037 1038 1036
f 1037 1039 1040 1038
f 1039 1041 1042 1040
f 1041 1043 1044 1042
f 1043 1033 1034 1044
f 1043 1041 1039 1037 1035 1033
f 1034 1036 1038 1040 1042 1044
f 1045 1047 1048 1046
f 1047 1049 1050 1048
f 1049 1051 1052 1050
f 1051 1045 1046 1052
f 1051 1049 1047 1045
f 1046 1048 1050 1052
f 1053 1055 1056 1054
f 1055 1057 1058 1056
f 1057 1059 1060 1058
f 1059 1053 1054 1060
f 1059 1057 1055 1053
f 1054 1056 1058 1060
f 1061 1063 1064 1062
f 1063 1065 1066 1064
f 1065 1067 1068 1066
f 1067 1061 1062 1068
f 1067 1065 1063 1061
f 1062 1064 1066 1068
f 1069 1071 1072 1070
f 1071 1073 1074 1072
f 1073 1075 1076 1074
f 1075 1077 1078 1076
f 1077 1069 1070 1078
f 1077 1075 1073 1071 1069
f 1070 1072 1074 1076 1078
f 1079 1081 1082 1080
f 1081 1083 1084 1082
f 1083 1085 1086 1084
f 1085 1079 1080 1086
f 1085 1083 1081 1079
f 1080 1082 1084 1086
f 1087 1089 1090 1088
f 1089 1091 1092 1090
f 1091 1093 1094 1092
f 1093 1087 1088 1094
f 1093 1091 1089 1087
f 1088 1090 1092 1094
f 1095 1097 1098 1096
f 1097 1099 1100 1098
f 1099 1101 1102 1100
f 1101 1095 1096 1102
f 1101 1099 1097 1095
f 1096 1098 1100 1102
f 1103 1105 1106 1104
f 1105 1107 1108 1106
f 1107 1109 1110 1108
f 1109 1111 1112 1110
f 1111 1113 1114 1112
f 1113 1103 1104 1114
f 1113 1111 1109 1107 1105 1103
f 1104 1106 1108 1110 1112 1114
f 1115 1117 1118 1116
f 1117 1119 1120 1118
f 1119 1121 1122 1120
f 1121 1123 1124 1122
f 1123 1115 1116 1124
f 1123 1121 1119 1117 1115
f 1116 1118 1120 1122 1124
f 1125 1127 1128 1126
f 1127 1129 1130 1128
f 1129 1131 1132 1130
f 1131 1125 1126 1132
f 1131 1129 1127 1125
f 1126 1128 1130 1132
f 1133 1135 1136 1134
f 1135 1137 1138 1136
f 1137 1139 1140 1138
f 1139 1133 1134 1140
f 1139 1137 1135 1133
f 1134 1136 1138 1140
f 1141 1143 1144 1142
f 1143 1145 1146 1144
f 1145 1147 1148 1146
f 1147 1141 1142 1148
f 1147 1145 1143 1141
f 1142 1144 1146 1148
f 1149 1151 1152 1150
f 1151 1153 1154 1152
f 1153 1155 1156 1154
f 1155 1149 1150 1156
f 1155 1153 1151 1149
f 1150 1152 1154 1156
f 1157 1159 1160 1158
f 1159 1161 1162 1160
f 1161 1163 1164 1162
f 1163 1157 1158 1164
f 1163 1161 1159 1157
f 1158 1160 1162 1164
f 1165 1167 1168 1166
f 1167 1169 1170 1168
f 1169 1171 1172 1170
f 1171 1165 1166 1172
f 1171 1169 1167 1165
f 1166 1168 1170 1172
f 1173 1175 1176 1174
f 1175 1177 1178 1176
f 1177 1179 1180 1178
f 1179 1173 1174 1180
f 1179 1177 1175 1173
f 1174 1176 1178 1180
f 1181 1183 1184 1182
f 1183 1185 1186 1184
f 1185 1187 1188 1186
f 1187 1181 1182 1188
f 1187 1185 1183 1181
f 1182 1184 1186 1188
f 1189 1191 1192 1190
f 1191 1193 1194 1192
f 1193 1195 1196 1194
f 1195 1189 1190 1196
f 1195 1193 1191 1189
f 1190 1192 1194 1196
f 1197 1199 1200 1198
f 1199 1201 1202 1200
f 1201 1203 1204 1202
f 1203 1197 1198 1204
f 1203 1201 1199 1197
f 1198 1200 1202 1204
f 1205 1207 1208 1206
f 1207 1209 1210 1208
f 1209 1211 1212 1210
f 1211 1205 1206 1212
f 1211 1209 1207 1205
f 1206 1208 1210 1212
f 1213 1215 1216 1214
f 1215 1217 1218 1216
f 1217 1219 1220 1218
f 1219 1213 1214 1220
f 1219 1217 1215 1213
f 1214 1216 1218 1220
f 1221 1223 1224 1222
f 1223 1225 1226 1224
f 1225 1227 1228 1226
f 1227 1221 1222 1228
f 1227 1225 1223 1221
f 1222 1224 1226 1228
f 1229 1231 1232 1230
f 1231 1233 1234 1232
f 1233 1235 1236 1234
f 1235 1229 1230 1236
f 1235 1233 1231 1229
f 1230 1232 1234 1236
f 1237 1239 1240 1238
f 1239 1241 1242 1240
f 1241 1243 1244 1242
f 1243 1245 1246 1244
f 1245 1247 1248 1246
f 1247 1249 1250 1248
f 1249 1251 1252 1250
f 1251 1237 1238 1252
f 1251 1249 1247 1245 1243 1241 1239 1237
f 1238 1240 1242 1244 1246 1248 1250 1252
f 1253 1255 1256 1254
f 1255 1257 1258 1256
f 1257 1259 1260 1258
f 1259 1253 1254 1260
f 1259 1257 1255 1253
f 1254 1256 1258 1260
f 1261 1263 1264 1262
f 1263 1265 1266 1264
f 1265 1267 1268 1266
f 1267 1261 1262 1268
f 1267 1265 1263 1261
f 1262 1264 1266 1268
f 1269 1271 1272 1270
f 1271 1273 1274 1272
f 1273 1269 1270 1274
f 1273 1271 1269
f 1270 1272 1274
f 1275 1277 1278 1276
f 1277 1279 1280 1278
f 1279 1281 1282 1280
f 1281 1275 1276 1282
f 1281 1279 1277 1275
f 1276 1278 1280 1282
f 1283 1285 1286 1284
f 1285 1287 1288 1286
f 1287 1289 1290 1288
f 1289 1283 1284 1290
f 1289 1287 1285 1283
f 1284 1286 1288 1290
f 1291 1293 1294 1292
f 1293 1295 1296 1294
f 1295 1297 1298 1296
f 1297 1291 1292 1298
f 1297 1295 1293 1291
f 1292 1294 1296 1298
f 1299 1301 1302 1300
f 1301 1303 1304 1302
f 1303 1305 1306 1304
f 1305 1307 1308 1306
f 1307 1309 1310 1308
f 1309 1311 1312 1310
f 1311 1299 1300 1312
f 1311 1309 1307 1305 1303 1301 1299
f 1300 1302 1304 1306 1308 1310 1312
f 1313 1315 1316 1314
f 1315 1317 1318 1316
f 1317 1319 1320 1318
f 1319 1313 1314 1320
f 1319 1317 1315 1313
f 1314 1316 1318 1320
f 1321 1323 1324 1322
f 1323 1325 1326 1324
f 1325 1327 1328 1326
f 1327 1321 1322 1328
f 1327 1325 1323 1321
f 1322 1324 1326 1328
f 1329 1331 1332 1330
f 1331 1333 1334 1332
f 1333 1335 1336 1334
f 1335 1329 1330 1336
f 1335 1333 1331 1329
f 1330 1332 1334 1336
f 1337 1339 1340 1338
f 1339 1341 1342 1340
f 1341 1343 1344 1342
f 1343 1345 1346 1344
f 1345 1347 1348 1346
f 1347 1349 1350 1348
f 1349 1351 1352 1350
f 1351 1337 1338 1352
f 1351 1349 1347 1345 1343 1341 1339 1337
f 1338 1340 1342 1344 1346 1348 1350 1352
f 1353 1355 1356 1354
f 1355 1357 1358 1356
f 1357 1359 1360 1358
f 1359 1353 1354 1360
f 1359 1357 1355 1353
f 1354 1356 1358 1360
f 1361 1363 1364 1362
f 1363 1365 1366 1364
f 1365 1367 1368 1366
f 1367 1361 1362 1368
f 1367 1365 1363 1361
f 1362 1364 1366 1368
f 1369 1371 1372 1370
f 1371 1373 1374 1372
f 1373 1375 1376 1374
f 1375 1377 1378 1376
f 1377 1379 1380 1378
f 1379 1369 1370 1380
f 1379 1377 1375 1373 1371 1369
f 1370 1372 1374 1376 1378 1380
f 1381 1383 1384 1382
f 1383 1385 1386 1384
f 1385 1387 1388 1386
f 1387 1381 1382 1388
f 1387 1385 1383 1381
f 1382 1384 1386 1388
f 1389 1391 1392 1390
f 1391 1393 1394 1392
f 1393 1395 1396 1394
f 1395 1389 1390 1396
f 1395 1393 1391 1389
f 1390 1392 1394 1396
f 1397 1399 1400 1398
f 1399 1401 1402 1400
f 1401 1403 1404 1402
f 1403 1397 1398 1404
f 1403 1401 1399 1397
f 1398 1400 1402 1404
f 1405 1407 1408 1406
f 1407 1409 1410 1408
f 1409 1411 1412 1410
f 1411 1405 1406 1412
f 1411 1409 1407 1405
f 1406 1408 1410 1412
f 1413 1415 1416 1414
f 1415 1417 1418 1416
f 1417 1419 1420 1418
f 1419 1413 1414 1420
f 1419 1417 1415 1413
f 1414 1416 1418 1420
f 1421 1423 1424 1422
f 1423 1425 1426 1424
f 1425 1427 1428 1426
f 1427 1421 1422 1428
f 1427 1425 1423 1421
f 1422 1424 1426 1428
f 1429 1431 1432 1430
f 1431 1433 1434 1432
f 1433 1435 1436 1434
f 1435 1437 1438 1436
f 1437 1439 1440 1438
f 1439 1429 1430 1440
f 1439 1437 1435 1433 1431 1429
f 1430 1432 1434 1436 1438 1440
f 1441 1443 1444 1442
f 1443 1445 1446 1444
f 1445 1447 1448 1446
f 1447 1441 1442 1448
f 1447 1445 1443 1441
f 1442 1444 1446 1448
f 1449 1451 1452 1450
f 1451 1453 1454 1452
f 1453 1455 1456 1454
f 1455 1449 1450 1456
f 1455 1453 1451 1449
f 1450 1452 1454 1456
f 1457 1459 1460 1458
f 1459 1461 1462 1460
f 1461 1463 1464 1462
f 1463 1457 1458 1464
f 1463 1461 1459 1457
f 1458 1460 1462 1464
f 1465 1467 1468 1466
f 1467 1469 1470 1468
f 1469 1471 1472 1470
f 1471 1465 1466 1472
f 1471 1469 1467 1465
f 1466 1468 1470 1472
f 1473 1475 1476 1474
f 1475 1477 1478 1476
f 1477 1479 1480 1478
f 1479 1473 1474 1480
f 1479 1477 1475 1473
f 1474 1476 1478 1480
f 1481 1483 1484 1482
f 1483 1485 1486 1484
f 1485 1487 1488 1486
f 1487 1489 1490 1488
f 1489 1491 1492 1490
f 1491 1481 1482 1492
f 1491 1489 1487 1485 1483 1481
f 1482 1484 1486 1488 1490 1492
f 1493 1495 1496 1494
f 1495 1497 1498 1496
f 1497 1499 1500 1498
f 1499 1493 1494 1500
f 1499 1497 1495 1493
f 1494 1496 1498 1500
f 1501 1503 1504 1502
f 1503 1505 1506 1504
f 1505 1507 1508 1506
f 1507 1509 1510 1508
f 1509 1511 1512 1510
f 1511 1513 1514 1512
f 1513 1515 1516 1514
f 1515 1517 1518 1516
f 1517 1519 1520 1518
f 1519 1521 1522 1520
f 1521 1523 1524 1522
f 1523 1525 1526 1524
f 1525 1527 1528 1526
f 1527 1529 1530 1528
f 1529 1531 1532 1530
f 1531 1533 1534 1532
f 1533 1535 1536 1534
f 1535 1537 1538 1536
f 1537 1539 1540 1538
f 1539 1541 1542 1540
f 1541 1543 1544 1542
f 1543 1545 1546 1544
f 1545 1547 1548 1546
f 1547 1549 1550 1548
f 1549 1551 1552 1550
f 1551 1553 1554 1552
f 1553 1555 1556 1554
f 1555 1557 1558 1556
f 1557 1501 1502 1558
f 1557 1555 1553 1551 1549 1547 1545 1543 1541 1539 1537 1535 1533 1531 1529 1527 1525 1523 1521 1519 1517 1515 1513 1511 1509 1507 1505 1503 1501
f 1502 1504 1506 1508 1510 1512 1514 1516 1518 1520 1522 1524 1526 1528 1530 1532 1534 1536 1538 1540 1542 1544 1546 1548 1550 1552 1554 1556 1558
f 1559 1561 1562 1560
f 1561 1563 1564 1562
f 1563 1565 1566 1564
f 1565 1567 1568 1566
f 1567 1569 1570 1568
f 1569 1571 1572 1570
f 1571 1573 1574 1572
f 1573 1575 1576 1574
f 1575 1577 1578 1576
f 1577 1579 1580 1578
f 1579 1581 1582 1580
f 1581 1583 1584 1582
f 1583 1585 1586 1584
f 1585 1587 1588 1586
f 1587 1589 1590 1588
f 1589 1591 1592 1590
f 1591 1593 1594 1592
f 1593 1595 1596 1594
f 1595 1597 1598 1596
f 1597 1599 1600 1598
f 1599 1601 1602 1600
f 1601 1603 1604 1602
f 1603 1605 1606 1604
f 1605 1607 1608 1606
f 1607 1609 1610 1608
f 1609 1611 1612 1610
f 1611 1613 1614 1612
f 1613 1615 1616 1614
f 1615 1559 1560 1616
f 1615 1613 1611 1609 1607 1605 1603 1601 1599 1597 1595 1593 1591 1589 1587 1585 1583 1581 1579 1577 1575 1573 1571 1569 1567 1565 1563 1561 1559
f 1560 1562 1564 1566 1568 1570 1572 1574 1576 1578 1580 1582 1584 1586 1588 1590 1592 1594 1596 1598 1600 1602 1604 1606 1608 1610 1612 1614 1616
f 1617 1619 1620 1618
f 1619 1621 1622 1620
f 1621 1623 1624 1622
f 1623 1625 1626 1624
f 1625 1627 1628 1626
f 1627 1629 1630 1628
f 1629 1631 1632 1630
f 1631 1633 1634 1632
f 1633 1635 1636 1634
f 1635 1637 1638 1636
f 1637 1639 1640 1638
f 1639 1641 1642 1640
f 1641 1643 1644 1642
f 1643 1645 1646 1644
f 1645 1647 1648 1646
f 1647 1649 1650 1648
f 1649 1651 1652 1650
f 1651 1653 1654 1652
f 1653 1655 1656 1654
f 1655 1657 1658 1656
f 1657 1659 1660 1658
f 1659 1661 1662 1660
f 1661 1663 1664 1662
f 1663 1665 1666 1664
f 1665 1667 1668 1666
f 1667 1669 1670 1668
f 1669 1671 1672 1670
f 1671 1673 1674 1672
f 1673 1617 1618 1674
f 1673 1671 1669 1667 1665 1663 1661 1659 1657 1655 1653 1651 1649 1647 1645 1643 1641 1639 1637 1635 1633 1631 1629 1627 1625 1623 1621 1619 1617
f 1618 1620 1622 1624 1626 1628 1630 1632 1634 1636 1638 1640 1642 1644 1646 1648 1650 1652 1654 1656 1658 1660 1662 1664 1666 1668 1670 1672 1674
f 1675 1677 1678 1676
f 1677 1679 1680 1678
f 1679 1681 1682 1680
f 1681 1683 1684 1682
f 1683 1685 1686 1684
f 1685 1687 1688 1686
f 1687 1689 1690 1688
f 1689 1691 1692 1690
f 1691 1693 1694 1692
f 1693 1695 1696 1694
f 1695 1697 1698 1696
f 1697 1699 1700 1698
f 1699 1701 1702 1700
f 1701 1703 1704 1702
f 1703 1705 1706 1704
f 1705 1707 1708 1706
f 1707 1709 1710 1708
f 1709 1711 1712 1710
f 1711 1713 1714 1712
f 1713 1715 1716 1714
f 1715 1717 1718 1716
f 1717 1719 1720 1718
f 1719 1721 1722 1720
f 1721 1723 1724 1722
f 1723 1725 1726 1724
f 1725 1727 1728 1726
f 1727 1729 1730 1728
f 1729 1731 1732 1730
f 1731 1675 1676 1732
f 1731 1729 1727 1725 1723 1721 1719 1717 1715 1713 1711 1709 1707 1705 1703 1701 1699 1697 1695 1693 1691 1689 1687 1685 1683 1681 1679 1677 1675
f 1676 1678 1680 1682 1684 1686 1688 1690 1692 1694 1696 1698 1700 1702 1704 1706 1708 1710 1712 1714 1716 1718 1720 1722 1724 1726 1728 1730 1732
f 1733 1735 1736 1734
f 1735 1737 1738 1736
f 1737 1739 1740 1738
f 1739 1741 1742 1740
f 1741 1743 1744 1742
f 1743 1745 1746 1744
f 1745 1747 1748 1746
f 1747 1749 1750 1748
f 1749 1751 1752 1750
f 1751 1753 1754 1752
f 1753 1755 1756 1754
f 1755 1757 1758 1756
f 1757 1759 1760 1758
f 1759 1761 1762 1760
f 1761 1763 1764 1762
f 1763 1765 1766 1764
f 1765 1767 1768 1766
f 1767 1769 1770 1768
f 1769 1771 1772 1770
f 1771 1773 1774 1772
f 1773 1775 1776 1774
f 1775 1777 1778 1776
f 1777 1779 1780 1778
f 1779 1781 1782 1780
f 1781 1783 1784 1782
f 1783 1785 1786 1784
f 1785 1787 1788 1786
f 1787 1789 1790 1788
f 1789 1733 1734 1790
f 1789 1787 1785 1783 1781 1779 1777 1775 1773 1771 1769 1767 1765 1763 1761 1759 1757 1755 1753 1751 1749 1747 1745 1743 1741 1739 1737 1735 1733
f 1734 1736 1738 1740 1742 1744 1746 1748 1750 1752 1754 1756 1758 1760 1762 1764 1766 1768 1770 1772 1774 1776 1778 1780 1782 1784 1786 1788 1790
f 1791 1793 1794 1792
f 1793 1795 1796 1794
f 1795 1797 1798 1796
f 1797 1799 1800 1798
f 1799 1801 1802 1800
f 1801 1803 1804 1802
f 1803 1805 1806 1804
f 1805 1807 1808 1806
f 1807 1809 1810 1808
f 1809 1811 1812 1810
f 1811 1813 1814 1812
f 1813 1815 1816 1814
f 1815 1817 1818 1816
f 1817 1819 1820 1818
f 1819 1821 1822 1820
f 1821 1823 1824 1822
f 1823 1825 1826 1824
f 1825 1827 1828 1826
f 1827 1829 1830 1828
f 1829 1831 1832 1830
f 1831 1833 1834 1832
f 1833 1835 1836 1834
f 1835 1837 1838 1836
f 1837 1839 1840 1838
f 1839 1791 1792 1840
f 1839 1837 1835 1833 1831 1829 1827 1825 1823 1821 1819 1817 1815 1813 1811 1809 1807 1805 1803 1801 1799 1797 1795 1793 1791
f 1792 1794 1796 1798 1800 1802 1804 1806 1808 1810 1812 1814 1816 1818 1820 1822 1824 1826 1828 1830 1832 1834 1836 1838 1840
f 1841 1843 1844 1842
f 1843 1845 1846 1844
f 1845 1847 1848 1846
f 1847 1849 1850 1848
f 1849 1851 1852 1850
f 1851 1853 1854 1852
f 1853 1855 1856 1854
f 1855 1857 1858 1856
f 1857 1859 1860 1858
f 1859 1861 1862 1860
f 1861 1863 1864 1862
f 1863 1865 1866 1864
f 1865 1867 1868 1866
f 1867 1869 1870 1868
f 1869 1871 1872 1870
f 1871 1873 1874 1872
f 1873 1875 1876 1874
f 1875 1877 1878 1876
f 1877 1879 1880 1878
f 1879 1881 1882 1880
f 1881 1883 1884 1882
f 1883 1885 1886 1884
f 1885 1887 1888 1886
f 1887 1889 1890 1888
f 1889 1891 1892 1890
f 1891 1893 1894 1892
f 1893 1895 1896 1894
f 1895 1897 1898 1896
f 1897 1899 1900 1898
f 1899 1901 1902 1900
f 1901 1903 1904 1902
f 1903 1905 1906 1904
f 1905 1907 1908 1906
f 1907 1841 1842 1908
f 1907 1905 1903 1901 1899 1897 1895 1893 1891 1889 1887 1885 1883 1881 1879 1877 1875 1873 1871 1869 1867 1865 1863 1861 1859 1857 1855 1853 1851 1849 1847 1845 1843 1841
f 1842 1844 1846 1848 1850 1852 1854 1856 1858 1860 1862 1864 1866 1868 1870 1872 1874 1876 1878 1880 1882 1884 1886 1888 1890 1892 1894 1896 1898 1900 1902 1904 1906 1908
f 1909 1911 1912 1910
f 1911 1913 1914 1912
f 1913 1915 1916 1914
f 1915 1917 1918 1916
f 1917 1919 1920 1918
f 1919 1921 1922 1920
f 1921 1923 1924 1922
f 1923 1925 1926 1924
f 1925 1927 1928 1926
f 1927 1929 1930 1928
f 1929 1931 1932 1930
f 1931 1933 1934 1932
f 1933 1935 1936 1934
f 1935 1937 1938 1936
f 1937 1939 1940 1938
f 1939 1941 1942 1940
f 1941 1943 1944 1942
f 1943 1945 1946 1944
f 1945 1947 1948 1946
f 1947 1949 1950 1948
f 1949 1951 1952 1950
f 1951 1953 1954 1952
f 1953 1955 1956 1954
f 1955 1957 1958 1956
f 1957 1909 1910 1958
f 1957 1955 1953 1951 1949 1947 1945 1943 1941 1939 1937 1935 1933 1931 1929 1927 1925 1923 1921 1919 1917 1915 1913 1911 1909
f 1910 1912 1914 1916 1918 1920 1922 1924 1926 1928 1930 1932 1934 1936 1938 1940 1942 1944 1946 1948 1950 1952 1954 1956 1958
f 1959 1961 1962 1960
f 1961 1963 1964 1962
f 1963 1965 1966 1964
f 1965 1967 1968 1966
f 1967 1969 1970 1968
f 1969 1971 1972 1970
f 1971 1973 1974 1972
f 1973 1975 1976 1974
f 1975 1977 1978 1976
f 1977 1979 1980 1978
f 1979 1981 1982 1980
f 1981 1983 1984 1982
f 1983 1985 1986 1984
f 1985 1987 1988 1986
f 1987 1989 1990 1988
f 1989 1991 1992 1990
f 1991 1993 1994 1992
f 1993 1995 1996 1994
f 1995 1997 1998 1996
f 1997 1999 2000 1998
f 1999 2001 2002 2000
f 2001 2003 2004 2002
f 2003 2005 2006 2004
f 2005 2007 2008 2006
f 2007 2009 2010 2008
f 2009 2011 2012 2010
f 2011 2013 2014 2012
f 2013 1959 1960 2014
f 2013 2011 2009 2007 2005 2003 2001 1999 1997 1995 1993 1991 1989 1987 1985 1983 1981 1979 1977 1975 1973 1971 1969 1967 1965 1963 1961 1959
f 1960 1962 1964 1966 1968 1970 1972 1974 1976 1978 1980 1982 1984 1986 1988 1990 1992 1994 1996 1998 2000 2002 2004 2006 2008 2010 2012 2014
f 2015 2017 2018 2016
f 2017 2019 2020 2018
f 2019 2021 2022 2020
f 2021 2023 2024 2022
f 2023 2025 2026 2024
f 2025 2027 2028 2026
f 2027 2029 2030 2028
f 2029 2031 2032 2030
f 2031 2033 2034 2032
f 2033 2035 2036 2034
f 2035 2037 2038 2036
f 2037 2039 2040 2038
f 2039 2041 2042 2040
f 2041 2043 2044 2042
f 2043 2045 2046 2044
f 2045 2047 2048 2046
f 2047 2049 2050 2048
f 2049 2051 2052 2050
f 2051 2053 2054 2052
f 2053 2055 2056 2054
f 2055 2057 2058 2056
f 2057 2059 2060 2058
f 2059 2061 2062 2060
f 2061 2063 2064 2062
f 2063 2065 2066 2064
f 2065 2067 2068 2066
f 2067 2069 2070 2068
f 2069 2015 2016 2070
f 2069 2067 2065 2063 2061 2059 2057 2055 2053 2051 2049 2047 2045 2043 2041 2039 2037 2035 2033 2031 2029 2027 2025 2023 2021 2019 2017 2015
f 2016 2018 2020 2022 2024 2026 2028 2030 2032 2034 2036 2038 2040 2042 2044 2046 2048 2050 2052 2054 2056 2058 2060 2062 2064 2066 2068 2070
f 2071 2073 2074 2072
f 2073 2075 2076 2074
f 2075 2077 2078 2076
f 2077 2079 2080 2078
f 2079 2081 2082 2080
f 2081 2083 2084 2082
f 2083 2085 2086 2084
f 2085 2087 2088 2086
f 2087 2089 2090 2088
f 2089 2091 2092 2090
f 2091 2093 2094 2092
f 2093 2095 2096 2094
f 2095 2097 2098 2096
f 2097 2099 2100 2098
f 2099 2101 2102 2100
f 2101 2103 2104 2102
f 2103 2105 2106 2104
f 2105 2107 2108 2106
f 2107 2109 2110 2108
f 2109 2111 2112 2110
f 2111 2113 2114 2112
f 2113 2115 2116 2114
f 2115 2117 2118 2116
f 2117 2119 2120 2118
f 2119 2121 2122 2120
f 2121 2123 2124 2122
f 2123 2125 2126 2124
f 2125 2127 2128 2126
f 2127 2129 2130 2128
f 2129 2071 2072 2130
f 2129 2127 2125 2123 2121 2119 2117 2115 2113 2111 2109 2107 2105 2103 2101 2099 2097 2095 2093 2091 2089 2087 2085 2083 2081 2079 2077 2075 2073 2071
f 2072 2074 2076 2078 2080 2082 2084 2086 2088 2090 2092 2094 2096 2098 2100 2102 2104 2106 2108 2110 2112 2114 2116 2118 2120 2122 2124 2126 2128 2130
f 2131 2133 2134 2132
f 2133 2135 2136 2134
f 2135 2137 2138 2136
f 2137 2131 2132 2138
f 2137 2135 2133 2131
f 2132 2134 2136 2138
f 2139 2141 2142 2140
f 2141 2143 2144 2142
f 2143 2145 2146 2144
f 2145 2139 2140 2146
f 2145 2143 2141 2139
f 2140 2142 2144 2146
f 2147 2149 2150 2148
f 2149 2151 2152 2150
f 2151 2153 2154 2152
f 2153 2147 2148 2154
f 2153 2151 2149 2147
f 2148 2150 2152 2154
f 2155 2157 2158 2156
f 2157 2159 2160 2158
f 2159 2161 2162 2160
f 2161 2155 2156 2162
f 2161 2159 2157 2155
f 2156 2158 2160 2162
f 2163 2165 2166 2164
f 2165 2167 2168 2166
f 2167 2169 2170 2168
f 2169 2171 2172 2170
f 2171 2173 2174 2172
f 2173 2175 2176 2174
f 2175 2177 2178 2176
f 2177 2179 2180 2178
f 2179 2181 2182 2180
f 2181 2183 2184 2182
f 2183 2185 2186 2184
f 2185 2187 2188 2186
f 2187 2189 2190 2188
f 2189 2191 2192 2190
f 2191 2193 2194 2192
f 2193 2163 2164 2194
f 2193 2191 2189 2187 2185 2183 2181 2179 2177 2175 2173 2171 2169 2167 2165 2163
f 2164 2166 2168 2170 2172 2174 2176 2178 2180 2182 2184 2186 2188 2190 2192 2194
f 2195 2197 2198 2196
f 2197 2199 2200 2198
f 2199 2201 2202 2200
f 2201 2195 2196 2202
f 2201 2199 2197 2195
f 2196 2198 2200 2202
f 2203 2205 2206 2204
f 2205 2207 2208 2206
f 2207 2209 2210 2208
f 2209 2211 2212 2210
f 2211 2213 2214 2212
f 2213 2215 2216 2214
f 2215 2217 2218 2216
f 2217 2219 2220 2218
f 2219 2221 2222 2220
f 2221 2223 2224 2222
f 2223 2225 2226 2224
f 2225 2227 2228 2226
f 2227 2229 2230 2228
f 2229 2231 2232 2230
f 2231 2233 2234 2232
f 2233 2235 2236 2234
f 2235 2237 2238 2236
f 2237 2239 2240 2238
f 2239 2241 2242 2240
f 2241 2243 2244 2242
f 2243 2245 2246 2244
f 2245 2247 2248 2246
f 2247 2249 2250 2248
f 2249 2251 2252 2250
f 2251 2203 2204 2252
f 2251 2249 2247 2245 2243 2241 2239 2237 2235 2233 2231 2229 2227 2225 2223 2221 2219 2217 2215 2213 2211 2209 2207 2205 2203
f 2204 2206 2208 2210 2212 2214 2216 2218 2220 2222 2224 2226 2228 2230 2232 2234 2236 2238 2240 2242 2244 2246 2248 2250 2252
f 2253 2255 2256 2254
f 2255 2257 2258 2256
f 2257 2259 2260 2258
f 2259 2253 2254 2260
f 2259 2257 2255 2253
f 2254 2256 2258 2260
f 2261 2263 2264 2262
f 2263 2265 2266 2264
f 2265 2267 2268 2266
f 2267 2261 2262 2268
f 2267 2265 2263 2261
f 2262 2264 2266 2268
f 2269 2271 2272 2270
f 2271 2273 2274 2272
f 2273 2275 2276 2274
f 2275 2277 2278 2276
f 2277 2279 2280 2278
f 2279 2269 2270 2280
f 2279 2277 2275 2273 2271 2269
f 2270 2272 2274 2276 2278 2280
f 2281 2283 2284 2282
f 2283 2285 2286 2284
f 2285 2287 2288 2286
f 2287 2281 2282 2288
f 2287 2285 2283 2281
f 2282 2284 2286 2288
f 2289 2291 2292 2290
f 2291 2293 2294 2292
f 2293 2295 2296 2294
f 2295 2297 2298 2296
f 2297 2299 2300 2298
f 2299 2301 2302 2300
f 2301 2289 2290 2302
f 2301 2299 2297 2295 2293 2291 2289
f 2290 2292 2294 2296 2298 2300 2302
f 2303 2305 2306 2304
f 2305 2307 2308 2306
f 2307 2309 2310 2308
f 2309 2311 2312 2310
f 2311 2313 2314 2312
f 2313 2315 2316 2314
f 2315 2317 2318 2316
f 2317 2319 2320 2318
f 2319 2321 2322 2320
f 2321 2303 2304 2322
f 2321 2319 2317 2315 2313 2311 2309 2307 2305 2303
f 2304 2306 2308 2310 2312 2314 2316 2318 2320 2322
f 2323 2325 2326 2324
f 2325 2327 2328 2326
f 2327 2329 2330 2328
f 2329 2331 2332 2330
f 2331 2333 2334 2332
f 2333 2335 2336 2334
f 2335 2337 2338 2336
f 2337 2323 2324 2338
f 2337 2335 2333 2331 2329 2327 2325 2323
f 2324 2326 2328 2330 2332 2334 2336 2338
