# Arechi Urban Study - 3D Terrain Model
# Origine locale: X=486126.12, Y=4497774.89

v -874.5066 -1019.0442 0.5283
v -680.1718 -1019.0442 0.1437
v -485.8370 -1019.0442 -0.3663
v -291.5022 -1019.0442 -0.5567
v -97.1674 -1019.0442 -0.2616
v 97.1674 -1019.0442 0.2616
v 291.5022 -1019.0442 0.5567
v 485.8370 -1019.0442 0.3663
v 680.1718 -1019.0442 -0.1437
v 874.5066 -1019.0442 -0.5283
v -874.5066 -792.5899 -0.9634
v -680.1718 -792.5899 -0.2620
v -485.8370 -792.5899 0.6679
v -291.5022 -792.5899 1.0153
v -97.1674 -792.5899 0.4771
v 97.1674 -792.5899 -0.4771
v 291.5022 -792.5899 -1.0153
v 485.8370 -792.5899 -0.6679
v 680.1718 -792.5899 0.2620
v 874.5066 -792.5899 0.9634
v -874.5066 -566.1357 -1.3464
v -680.1718 -566.1357 -0.3661
v -485.8370 -566.1357 0.9335
v -291.5022 -566.1357 1.4189
v -97.1674 -566.1357 0.6668
v 97.1674 -566.1357 -0.6668
v 291.5022 -566.1357 -1.4189
v 485.8370 -566.1357 -0.9335
v 680.1718 -566.1357 0.3661
v 874.5066 -566.1357 1.3464
v -874.5066 -339.6814 -0.1800
v -680.1718 -339.6814 -0.0489
v -485.8370 -339.6814 0.1248
v -291.5022 -339.6814 0.1897
v -97.1674 -339.6814 0.0891
v 97.1674 -339.6814 -0.0891
v 291.5022 -339.6814 -0.1897
v 485.8370 -339.6814 -0.1248
v 680.1718 -339.6814 0.0489
v 874.5066 -339.6814 0.1800
v -874.5066 -113.2271 1.1936
v -680.1718 -113.2271 0.3246
v -485.8370 -113.2271 -0.8275
v -291.5022 -113.2271 -1.2579
v -97.1674 -113.2271 -0.5911
v 97.1674 -113.2271 0.5911
v 291.5022 -113.2271 1.2579
v 485.8370 -113.2271 0.8275
v 680.1718 -113.2271 -0.3246
v 874.5066 -113.2271 -1.1936
v -874.5066 113.2271 1.1936
v -680.1718 113.2271 0.3246
v -485.8370 113.2271 -0.8275
v -291.5022 113.2271 -1.2579
v -97.1674 113.2271 -0.5911
v 97.1674 113.2271 0.5911
v 291.5022 113.2271 1.2579
v 485.8370 113.2271 0.8275
v 680.1718 113.2271 -0.3246
v 874.5066 113.2271 -1.1936
v -874.5066 339.6814 -0.1800
v -680.1718 339.6814 -0.0489
v -485.8370 339.6814 0.1248
v -291.5022 339.6814 0.1897
v -97.1674 339.6814 0.0891
v 97.1674 339.6814 -0.0891
v 291.5022 339.6814 -0.1897
v 485.8370 339.6814 -0.1248
v 680.1718 339.6814 0.0489
v 874.5066 339.6814 0.1800
v -874.5066 566.1357 -1.3464
v -680.1718 566.1357 -0.3661
v -485.8370 566.1357 0.9335
v -291.5022 566.1357 1.4189
v -97.1674 566.1357 0.6668
v 97.1674 566.1357 -0.6668
v 291.5022 566.1357 -1.4189
v 485.8370 566.1357 -0.9335
v 680.1718 566.1357 0.3661
v 874.5066 566.1357 1.3464
v -874.5066 792.5899 -0.9634
v -680.1718 792.5899 -0.2620
v -485.8370 792.5899 0.6679
v -291.5022 792.5899 1.0153
v -97.1674 792.5899 0.4771
v 97.1674 792.5899 -0.4771
v 291.5022 792.5899 -1.0153
v 485.8370 792.5899 -0.6679
v 680.1718 792.5899 0.2620
v 874.5066 792.5899 0.9634
v -874.5066 1019.0442 0.5283
v -680.1718 1019.0442 0.1437
v -485.8370 1019.0442 -0.3663
v -291.5022 1019.0442 -0.5567
v -97.1674 1019.0442 -0.2616
v 97.1674 1019.0442 0.2616
v 291.5022 1019.0442 0.5567
v 485.8370 1019.0442 0.3663
v 680.1718 1019.0442 -0.1437
v 874.5066 1019.0442 -0.5283

f 1 2 12 11
f 2 3 13 12
f 3 4 14 13
f 4 5 15 14
f 5 6 16 15
f 6 7 17 16
f 7 8 18 17
f 8 9 19 18
f 9 10 20 19
f 11 12 22 21
f 12 13 23 22
f 13 14 24 23
f 14 15 25 24
f 15 16 26 25
f 16 17 27 26
f 17 18 28 27
f 18 19 29 28
f 19 20 30 29
f 21 22 32 31
f 22 23 33 32
f 23 24 34 33
f 24 25 35 34
f 25 26 36 35
f 26 27 37 36
f 27 28 38 37
f 28 29 39 38
f 29 30 40 39
f 31 32 42 41
f 32 33 43 42
f 33 34 44 43
f 34 35 45 44
f 35 36 46 45
f 36 37 47 46
f 37 38 48 47
f 38 39 49 48
f 39 40 50 49
f 41 42 52 51
f 42 43 53 52
f 43 44 54 53
f 44 45 55 54
f 45 46 56 55
f 46 47 57 56
f 47 48 58 57
f 48 49 59 58
f 49 50 60 59
f 51 52 62 61
f 52 53 63 62
f 53 54 64 63
f 54 55 65 64
f 55 56 66 65
f 56 57 67 66
f 57 58 68 67
f 58 59 69 68
f 59 60 70 69
f 61 62 72 71
f 62 63 73 72
f 63 64 74 73
f 64 65 75 74
f 65 66 76 75
f 66 67 77 76
f 67 68 78 77
f 68 69 79 78
f 69 70 80 79
f 71 72 82 81
f 72 73 83 82
f 73 74 84 83
f 74 75 85 84
f 75 76 86 85
f 76 77 87 86
f 77 78 88 87
f 78 79 89 88
f 79 80 90 89
f 81 82 92 91
f 82 83 93 92
f 83 84 94 93
f 84 85 95 94
f 85 86 96 95
f 86 87 97 96
f 87 88 98 97
f 88 89 99 98
f 89 90 100 99
